<?xml version="1.0" standalone="no"?>
<!DOCTYPE svg PUBLIC "-//W3C//DTD SVG 1.1//EN" "http://www.w3.org/Graphics/SVG/1.1/DTD/svg11.dtd" >
<svg xmlns="http://www.w3.org/2000/svg" xmlns:xlink="http://www.w3.org/1999/xlink" version="1.1">
<metadata>
Created by FontForge 20170731 at Tue Aug 21 01:24:29 2018
 By Aleksey,,,
Copyright (c) 2017 Swiss Typefaces Sarl. All rights reserved. |DCNT
</metadata>
<defs>
<font id="BRRR-Medium" horiz-adv-x="991" >
  <font-face 
    font-family="BRRR"
    font-weight="500"
    font-stretch="normal"
    units-per-em="1000"
    panose-1="2 0 6 4 0 0 0 0 0 0"
    ascent="760"
    descent="-240"
    x-height="550"
    cap-height="700"
    bbox="-553 -227 1921 1336"
    underline-thickness="45"
    underline-position="-191"
    unicode-range="U+0020-FEFF"
  />
<missing-glyph horiz-adv-x="607" 
d="M497 0h-387v700h387v-700zM303 408l106 238h-212zM442 96v507l-113 -253zM165 98l112 252l-112 251v-503zM197 54h212l-106 237z" />
    <glyph glyph-name="f_a" unicode="fa" horiz-adv-x="1299" 
d="M30 420v130h109q0 96 68 154t190 58h168l195 -159l-315 35q-157 0 -157 -88h343l-126 -130h-217v-420h-149v420h-109zM1090 0v107q-41 -55 -112.5 -87.5t-161.5 -32.5q-116 0 -180 43.5t-64 129.5v25q0 157 239 157h269q-17 48 -65 63t-138 15h-247l126 130h151
q186 0 259 -69t73 -253v-228h-149zM851 118q62 0 130.5 16.5t108.5 41.5v52h-274q-53 0 -77.5 -9.5t-24.5 -36.5v-10q0 -31 35 -42.5t102 -11.5z" />
    <glyph glyph-name="f_f_a" unicode="ffa" horiz-adv-x="1789" 
d="M535 420v130h94q0 34 9 63l-193 25q-157 0 -157 -88h182v-130h-182v-420h-149v420h-109v130h109q0 96 68 154t190 58h168l96 -98q64 98 226 98h168l195 -159l-315 35q-157 0 -157 -88h343l-126 -130h-217v-420h-149v420h-94zM1580 0v107q-41 -55 -112.5 -87.5
t-161.5 -32.5q-116 0 -180 43.5t-64 129.5v25q0 157 239 157h269q-17 48 -65 63t-138 15h-247l126 130h151q186 0 259 -69t73 -253v-228h-149zM1341 118q62 0 130.5 16.5t108.5 41.5v52h-274q-53 0 -77.5 -9.5t-24.5 -36.5v-10q0 -31 35 -42.5t102 -11.5z" />
    <glyph glyph-name="f_b" unicode="fb" horiz-adv-x="1399" 
d="M30 420v130h109q0 96 68 154t190 58h168l213 -219v-109q46 56 122 93.5t169 37.5q126 0 205.5 -75t79.5 -198v-32q0 -123 -79.5 -198t-205.5 -75q-93 0 -169 37.5t-122 93.5v-118h-149v615l-184 23q-157 0 -157 -88h241v-130h-241v-420h-149v420h-109zM1010 427
q-60 0 -124 -18.5t-108 -44.5v-176q44 -26 108 -44.5t124 -18.5q91 0 147 34t56 101v32q0 67 -56 101t-147 34z" />
    <glyph glyph-name="f_f_b" unicode="ffb" horiz-adv-x="1889" 
d="M30 420v130h109q0 96 68 154t190 58h168l96 -98q64 98 226 98h168l213 -219v-109q46 56 122 93.5t169 37.5q126 0 205.5 -75t79.5 -198v-32q0 -123 -79.5 -198t-205.5 -75q-93 0 -169 37.5t-122 93.5v-118h-149v615l-184 23q-157 0 -157 -88h241v-130h-241v-420h-149v420
h-94v130h94q0 34 9 63l-193 25q-157 0 -157 -88h182v-130h-182v-420h-149v420h-109zM1500 427q-60 0 -124 -18.5t-108 -44.5v-176q44 -26 108 -44.5t124 -18.5q91 0 147 34t56 101v32q0 67 -56 101t-147 34z" />
    <glyph glyph-name="f_f" unicode="ff" horiz-adv-x="1120" 
d="M535 420v130h94q0 34 9 63l-193 25q-157 0 -157 -88h182v-130h-182v-420h-149v420h-109v130h109q0 96 68 154t190 58h168l96 -98q64 98 226 98h168l155 -159l-275 35q-157 0 -157 -88h284v-130h-284v-420h-149v420h-94z" />
    <glyph glyph-name="f_h" unicode="fh" horiz-adv-x="1373" 
d="M30 420v130h109q0 96 68 154t190 58h168l213 -219v-112q42 59 114.5 96.5t157.5 37.5q122 0 190 -71t68 -194v-300h-149v270q0 89 -33.5 123t-118.5 34q-57 0 -124.5 -19t-104.5 -48v-360h-149v615l-184 23q-157 0 -157 -88h241v-130h-241v-420h-149v420h-109z" />
    <glyph glyph-name="f_f_h" unicode="ffh" horiz-adv-x="1863" 
d="M535 420v130h94q0 34 9 63l-193 25q-157 0 -157 -88h182v-130h-182v-420h-149v420h-109v130h109q0 96 68 154t190 58h168l96 -98q64 98 226 98h168l213 -219v-112q42 59 114.5 96.5t157.5 37.5q122 0 190 -71t68 -194v-300h-149v270q0 89 -33.5 123t-118.5 34
q-57 0 -124.5 -19t-104.5 -48v-360h-149v615l-184 23q-157 0 -157 -88h241v-130h-241v-420h-149v420h-94z" />
    <glyph glyph-name="f_i" unicode="fi" horiz-adv-x="858" 
d="M30 420v130h109q0 96 68 154t190 58h168l155 -159l-275 35q-157 0 -157 -88h241v-130h-241v-420h-149v420h-109zM715 762h276v-123h-276v123zM629 550h149v-550h-149v550z" />
    <glyph glyph-name="f_j" unicode="fj" horiz-adv-x="883" 
d="M1016 762v-123h-301v123h301zM445 638q-157 0 -157 -88h515v-483q0 -145 -88 -209t-261 -64v133q95 0 147.5 37.5t52.5 102.5v353h-366v-420h-149v420h-109v130h109q0 96 68 154t190 58h168l155 -159z" />
    <glyph glyph-name="f_f_j" unicode="ffj" horiz-adv-x="1373" 
d="M935 638q-157 0 -157 -88h515v-483q0 -145 -88 -209t-261 -64v133q95 0 147.5 37.5t52.5 102.5v353h-366v-420h-149v420h-94v130h94q0 34 9 63l-193 25q-157 0 -157 -88h182v-130h-182v-420h-149v420h-109v130h109q0 96 68 154t190 58h168l96 -98q64 98 226 98h168
l155 -159zM1506 762v-123h-301v123h301z" />
    <glyph glyph-name="f_k" unicode="fk" horiz-adv-x="1353" 
d="M30 420v130h109q0 96 68 154t190 58h168l213 -219v-176l365 183h288l-390 -196l216 -354h-168l-176 290l-135 -68v-222h-149v615l-184 23q-157 0 -157 -88h241v-130h-241v-420h-149v420h-109z" />
    <glyph glyph-name="f_f_k" unicode="ffk" horiz-adv-x="1843" 
d="M535 420v130h94q0 34 9 63l-193 25q-157 0 -157 -88h182v-130h-182v-420h-149v420h-109v130h109q0 96 68 154t190 58h168l96 -98q64 98 226 98h168l213 -219v-176l365 183h288l-390 -196l216 -354h-168l-176 290l-135 -68v-222h-149v615l-184 23q-157 0 -157 -88h241
v-130h-241v-420h-149v420h-94z" />
    <glyph glyph-name="f_f_i" unicode="ffi" horiz-adv-x="1348" 
d="M535 420v130h94q0 34 9 63l-193 25q-157 0 -157 -88h182v-130h-182v-420h-149v420h-109v130h109q0 96 68 154t190 58h168l96 -98q64 98 226 98h168l155 -159l-275 35q-157 0 -157 -88h241v-130h-241v-420h-149v420h-94zM1205 762h276v-123h-276v123zM1119 550h149v-550
h-149v550z" />
    <glyph glyph-name="f_l" unicode="fl" horiz-adv-x="858" 
d="M30 420v130h109q0 96 68 154t190 58h168l213 -219v-543h-149v615l-184 23q-157 0 -157 -88h241v-130h-241v-420h-149v420h-109z" />
    <glyph glyph-name="f_f_l" unicode="ffl" horiz-adv-x="1348" 
d="M535 420v130h94q0 34 9 63l-193 25q-157 0 -157 -88h182v-130h-182v-420h-149v420h-109v130h109q0 96 68 154t190 58h168l96 -98q64 98 226 98h168l213 -219v-543h-149v615l-184 23q-157 0 -157 -88h241v-130h-241v-420h-149v420h-94z" />
    <glyph glyph-name="f_t" unicode="ft" horiz-adv-x="1101" 
d="M30 420v130h109q0 96 68 154t190 58h168l207 -212h190l126 -130h-316v-220l303 -200h-254l-198 131v289h-94v130h94v65l-178 23q-157 0 -157 -88h176v-130h-176v-420h-149v420h-109z" />
    <glyph glyph-name="f_f_t" unicode="fft" horiz-adv-x="1591" 
d="M535 420v130h94q0 34 9 63l-193 25q-157 0 -157 -88h182v-130h-182v-420h-149v420h-109v130h109q0 96 68 154t190 58h168l96 -98q64 98 226 98h168l207 -212h190l126 -130h-316v-220l303 -200h-254l-198 131v289h-94v130h94v65l-178 23q-157 0 -157 -88h176v-130h-176
v-420h-149v420h-94z" />
    <glyph glyph-name="k_a" unicode="ka" horiz-adv-x="1529" 
d="M540 0l-176 290l-135 -68v-222h-149v762h149v-395l365 183h288l-390 -196l216 -354h-168zM1320 0v107q-41 -55 -112.5 -87.5t-161.5 -32.5q-116 0 -180 43.5t-64 129.5v25q0 157 239 157h269q-17 48 -65 63t-138 15h-329l259 130h100q186 0 259 -69t73 -253v-228h-149z
M1081 118q62 0 130.5 16.5t108.5 41.5v52h-274q-53 0 -77.5 -9.5t-24.5 -36.5v-10q0 -31 35 -42.5t102 -11.5z" />
    <glyph glyph-name="k_f" unicode="kf" horiz-adv-x="1394" 
d="M229 762v-395l365 183h309q0 96 68 154t190 58h168l155 -159l-275 35q-157 0 -157 -88h284v-130h-284v-420h-149v420h-280l-131 -66l216 -354h-168l-176 290l-135 -68v-222h-149v762h149z" />
    <glyph glyph-name="k_j" unicode="kj" horiz-adv-x="1159" 
d="M930 762h362v-123h-362v123zM229 762v-395l365 183h485v-483q0 -145 -88 -209t-261 -64v133q95 0 147.5 37.5t52.5 102.5v353h-307l-131 -66l216 -354h-168l-176 290l-135 -68v-222h-149v762h149z" />
    <glyph glyph-name="k_t" unicode="kt" horiz-adv-x="1326" 
d="M229 762v-395l365 183h254v150h149v-150h190l126 -130h-316v-220l303 -200h-254l-198 131v289h-225l-131 -66l216 -354h-168l-176 290l-135 -68v-222h-149v762h149z" />
    <glyph glyph-name="k_z" unicode="kz" horiz-adv-x="1422" 
d="M1399 0h-591v130l345 290h-530l-131 -66l216 -354h-168l-176 290l-135 -68v-222h-149v762h149v-395l365 183h739v-130l-345 -290h411v-130z" />
    <glyph glyph-name="r_j" unicode="rj" horiz-adv-x="924" 
d="M695 762h362v-123h-362v123zM412 394q-128 0 -183 -56v-338h-149v550h149v-130q22 48 66 87.5t102 50.5l159 -164h-144zM571 420v130h273v-483q0 -145 -88 -209t-261 -64v133q95 0 147.5 37.5t52.5 102.5v353h-124z" />
    <glyph glyph-name="t_t" unicode="tt" horiz-adv-x="1116" 
d="M1103 420h-316v-220l303 -200h-254l-198 131v289l-126 130h126v150h149v-150h190zM563 420h-266v-220l303 -200h-254l-198 131v289h-125v130h125v150h149v-150h140z" />
    <glyph glyph-name=".notdef" horiz-adv-x="607" 
d="M497 0h-387v700h387v-700zM303 408l106 238h-212zM442 96v507l-113 -253zM165 98l112 252l-112 251v-503zM197 54h212l-106 237z" />
    <glyph glyph-name=".null" horiz-adv-x="0" 
 />
    <glyph glyph-name="nonmarkingreturn" horiz-adv-x="333" 
 />
    <glyph glyph-name="space" unicode=" " horiz-adv-x="350" 
 />
    <glyph glyph-name="exclam" unicode="!" horiz-adv-x="579" 
d="M365 700v-497h-151v497h151zM70 0v144h439v-144h-439z" />
    <glyph glyph-name="quotedbl" unicode="&#x22;" horiz-adv-x="550" 
d="M470 366h-156v334h156v-334zM236 366h-156v334h156v-334z" />
    <glyph glyph-name="numbersign" unicode="#" horiz-adv-x="614" 
d="M519 216h-93l-53 -216h-47l53 216h-211l-53 -216h-47l53 216h-71v45h82l44 178h-81v45h92l54 216h47l-54 -216h211l54 216h47l-54 -216h72v-45h-83l-44 -178h82v-45zM223 439l-44 -178h211l44 178h-211z" />
    <glyph glyph-name="dollar" unicode="$" horiz-adv-x="976" 
d="M939 188q0 -95 -101.5 -146.5t-295.5 -54.5v-49h-45v49q-133 3 -232.5 33.5t-161.5 97t-65 162.5h154q27 -146 305 -151v171l-160 24q-126 19 -199 68.5t-73 127.5v27q0 83 54 118t162 35h216v62h45v-62h42l141 -142h-183v-123l179 -27q218 -33 218 -177v-43zM419 454
l78 -12v116h-283q0 -40 50.5 -64t154.5 -40zM681 272l-139 21v-164q243 4 243 70v14q0 26 -24 38t-80 21z" />
    <glyph glyph-name="percent" unicode="%" horiz-adv-x="1089" 
d="M178 19l700 701l32 -32l-700 -701zM285 720q251 0 251 -170v-26q0 -170 -251 -170q-250 0 -250 170v26q0 170 250 170zM153 527q0 -31 20.5 -48.5t46.5 -22t65 -4.5q30 0 57 3l-112 141h87l89 -111q13 16 13 42v20q0 24 -11 39.5t-31.5 23t-41.5 10t-50 2.5
q-39 0 -65 -4.5t-46.5 -22t-20.5 -48.5v-20zM803 353q251 0 251 -170v-26q0 -170 -251 -170q-250 0 -250 170v26q0 170 250 170zM671 160q0 -31 20.5 -48.5t46.5 -22t65 -4.5q30 0 57 3l-112 141h87l89 -111q13 16 13 42v20q0 24 -11 39.5t-31.5 23t-41.5 10t-50 2.5
q-39 0 -65 -4.5t-46.5 -22t-20.5 -48.5v-20z" />
    <glyph glyph-name="ampersand" unicode="&#x26;" horiz-adv-x="837" 
d="M36 0l290 344l-301 356h787l-301 -356l409 -484h-185l-316 374l-88 -104h130l110 -130h-535zM320 570l99 -117l98 117h-197z" />
    <glyph glyph-name="quotesingle" unicode="'" horiz-adv-x="316" 
d="M236 366h-156v334h156v-334z" />
    <glyph glyph-name="parenleft" unicode="(" horiz-adv-x="356" 
d="M346 625q-63 -39 -106.5 -121.5t-43.5 -175.5t43.5 -175.5t106.5 -121.5v-135q-131 54 -201 172t-70 260t70 260t201 172v-135z" />
    <glyph glyph-name="parenright" unicode=")" horiz-adv-x="356" 
d="M160 328q0 93 -43.5 175.5t-106.5 121.5v135q131 -54 201 -172t70 -260t-70 -260t-201 -172v135q63 39 106.5 121.5t43.5 175.5z" />
    <glyph glyph-name="asterisk" unicode="*" horiz-adv-x="449" 
d="M225 470l-95 -131l-37 25l96 131l-154 50l13 43l154 -50v162h45v-162l154 50l13 -43l-154 -50l96 -131l-37 -25z" />
    <glyph glyph-name="plus" unicode="+" horiz-adv-x="595" 
d="M275 102v175h-175v45h175v175h45v-175h175v-45h-175v-175h-45z" />
    <glyph glyph-name="comma" unicode="," horiz-adv-x="558" 
d="M-147 -140l441 274h229l-441 -274h-229z" />
    <glyph glyph-name="hyphen" unicode="-" horiz-adv-x="568" 
d="M498 228h-428v143h428v-143z" />
    <glyph glyph-name="period" unicode="." horiz-adv-x="428" 
d="M70 0v144h288v-144h-288z" />
    <glyph glyph-name="slash" unicode="/" horiz-adv-x="632" 
d="M483 700h149l-483 -700h-149z" />
    <glyph glyph-name="zero" unicode="0" horiz-adv-x="1112" 
d="M556 720q113 0 202 -18.5t157.5 -58t105 -106.5t36.5 -158v-51q0 -91 -36.5 -158t-105 -106.5t-157.5 -58t-202 -18.5t-202 18.5t-157.5 58t-105 106.5t-36.5 158v51q0 91 36.5 158t105 106.5t157.5 58t202 18.5zM201 328q0 -51 20.5 -88.5t52 -59t81 -34t95.5 -16
t106 -3.5q146 0 225 27l-310 388h175l244 -306q21 40 21 92v51q0 51 -20.5 88.5t-52 59t-81 34t-95.5 16t-106 3.5t-106 -3.5t-95.5 -16t-81 -34t-52 -59t-20.5 -88.5v-51z" />
    <glyph glyph-name="one" unicode="1" horiz-adv-x="646" 
d="M586 142v-142h-536v142h195l68 416h-134v142h308l-91 -558h190z" />
    <glyph glyph-name="two" unicode="2" horiz-adv-x="940" 
d="M386 558l23 142h501q0 -60 -21.5 -112t-51.5 -87.5t-78 -69t-85 -52t-87 -40.5q-250 -107 -291 -130q-69 -37 -70 -67h603v-142h-769v115q0 36 6.5 63.5t27.5 53.5t41 43.5t66.5 42.5t83.5 42.5t111 50.5q26 12 40 18q17 8 58 24.5t68 28.5t62.5 32.5t61.5 43.5h-300z
M224 700h150l-38 -240h-151z" />
    <glyph glyph-name="three" unicode="3" horiz-adv-x="947" 
d="M341 558l23 142h471v-131q-45 -82 -170 -152q124 -12 178 -52.5t54 -125.5v-41q0 -112 -103 -161.5t-328 -49.5t-328 49.5t-103 161.5v55h146v-25q0 -52 66 -76.5t219 -24.5q154 0 219.5 22t65.5 70v6q0 44 -53 53.5t-213 9.5h-33h-70v136q12 5 45 19.5t52.5 23.5t48 24
t52.5 31.5t44 35.5h-283zM179 700h150l-38 -240h-151z" />
    <glyph glyph-name="four" unicode="4" horiz-adv-x="932" 
d="M632 0l30 188h-627v142l565 370h247l-566 -370h403l40 249l169 111l-111 -690h-150z" />
    <glyph glyph-name="five" unicode="5" horiz-adv-x="956" 
d="M186 288l-66 412h456l23 -142h-306l21 -128h183q227 0 316 -40t89 -151v-41q0 -112 -103 -161.5t-328 -49.5t-328 49.5t-103 161.5v55h146v-25q0 -52 66 -76.5t219 -24.5q154 0 219.5 22t65.5 70t-49 58.5t-220 10.5h-301zM761 700l36 -218h-151l-35 218h150z" />
    <glyph glyph-name="six" unicode="6" horiz-adv-x="960" 
d="M905 198q0 -112 -103 -161.5t-328 -49.5q-224 0 -327.5 50t-103.5 161v21q0 52 21.5 88t68.5 67l498 326h251l-413 -270h5q225 0 328 -49.5t103 -161.5v-21zM759 213q0 41 -69 59t-216 18t-216 -18t-69 -59v-9q0 -41 69 -59t216 -18t216 18t69 59v9z" />
    <glyph glyph-name="seven" unicode="7" horiz-adv-x="921" 
d="M93 700h150l-45 -280h-151zM866 560l-436 -560h-186l434 558h-423l23 142h588v-140z" />
    <glyph glyph-name="eight" unicode="8" horiz-adv-x="957" 
d="M45 219q0 116 115 166l51 315h644l-52 -319q104 -50 104 -162v-20q0 -112 -103 -161.5t-328 -49.5q-224 0 -327.5 50t-103.5 161v20zM476 430q108 0 182 -10l22 135h-342l-21 -133q63 8 159 8zM476 290q-147 0 -216 -18t-69 -59v-8q0 -41 69 -59t216 -18t216 18t69 59v8
q0 41 -69 59t-216 18z" />
    <glyph glyph-name="nine" unicode="9" horiz-adv-x="960" 
d="M827 333l-508 -333h-251l424 277h-6q-225 0 -328 49.5t-103 161.5v21q0 112 103 161.5t328 49.5q224 0 327.5 -50t103.5 -161v-21q0 -52 -21.5 -88t-68.5 -67zM201 494q0 -41 69 -59t216 -18t216 18t69 59v9q0 41 -69 59t-216 18t-216 -18t-69 -59v-9z" />
    <glyph glyph-name="colon" unicode=":" horiz-adv-x="428" 
d="M70 376v144h288v-144h-288zM70 0v144h288v-144h-288z" />
    <glyph glyph-name="semicolon" unicode=";" horiz-adv-x="568" 
d="M70 376v144h428v-144h-428zM-147 -140l441 274h229l-441 -274h-229z" />
    <glyph glyph-name="less" unicode="&#x3c;" horiz-adv-x="595" 
d="M424 539l-239 -239l239 -239l-32 -31l-270 270l270 270z" />
    <glyph glyph-name="equal" unicode="=" horiz-adv-x="595" 
d="M495 375h-395v45h395v-45zM495 180h-395v45h395v-45z" />
    <glyph glyph-name="greater" unicode="&#x3e;" horiz-adv-x="595" 
d="M410 300l-239 239l32 31l270 -270l-270 -270l-32 31z" />
    <glyph glyph-name="question" unicode="?" horiz-adv-x="796" 
d="M54 460l39 240h686q0 -58 -23 -110.5t-55 -88.5t-80.5 -69.5t-84 -51.5t-80.5 -38q-50 -22 -67.5 -44.5t-17.5 -71.5v-33h-152v73q0 121 172 197q113 50 164 95h-334l-16 -98h-151zM75 0v144h439v-144h-439z" />
    <glyph glyph-name="at" unicode="@" horiz-adv-x="1128" 
d="M769 -182q-99 -44 -205 -44q-102 0 -195.5 40t-161 107.5t-107.5 161t-40 195.5t40 195.5t107.5 161t161 107.5t195.5 40t195.5 -40t161 -107.5t107.5 -161t40 -195.5q0 -104 -40.5 -197.5t-112.5 -163.5v311q0 184 -73 253t-259 69h-261l-129 -133h360q89 0 138 -13.5
t68 -61.5h-272q-239 0 -239 -157v-25q0 -86 64 -129.5t180 -43.5q92 0 164 33.5t113 90.5v-293zM769 178q-38 -25 -108.5 -42.5t-133.5 -17.5q-67 0 -102 11.5t-35 42.5v10q0 27 24.5 36.5t77.5 9.5h277v-50z" />
    <glyph glyph-name="A" unicode="A" horiz-adv-x="1091" 
d="M910 0l-101 176h-527l-101 -176h-171l402 700h267l402 -700h-171zM361 314h369l-184 321z" />
    <glyph glyph-name="B" unicode="B" horiz-adv-x="939" 
d="M75 0v700h512q101 0 166 -55t64 -135q0 -39 -18 -76t-45 -55q71 -13 112 -57t41 -116q0 -89 -57.5 -147.5t-167.5 -58.5h-607zM594 558h-361v-136h361q36 0 56.5 19.5t20.5 49.5t-20 48.5t-57 18.5zM678 289h-445v-147h445q35 0 58 20t23 54t-23 53.5t-58 19.5z" />
    <glyph glyph-name="C" unicode="C" horiz-adv-x="1114" 
d="M558 126q311 0 349 154h156q-33 -293 -505 -293q-508 0 -508 341v51q0 341 508 341q477 0 506 -300h-155q-33 161 -351 161q-355 0 -355 -202v-51q0 -202 355 -202z" />
    <glyph glyph-name="D" unicode="D" horiz-adv-x="1033" 
d="M75 0v700h423q242 0 363.5 -78t121.5 -257v-30q0 -179 -121.5 -257t-363.5 -78h-423zM498 558h-265v-416h265q75 0 128.5 7t103 26.5t75 59.5t25.5 100v30q0 60 -25.5 100t-75 59.5t-103 26.5t-128.5 7z" />
    <glyph glyph-name="E" unicode="E" horiz-adv-x="921" 
d="M75 0v700h791v-142h-633v-133h469v-139h-469v-144h633v-142h-791z" />
    <glyph glyph-name="F" unicode="F" horiz-adv-x="894" 
d="M75 0v700h791v-142h-633v-133h469v-139h-469v-286h-158z" />
    <glyph glyph-name="G" unicode="G" horiz-adv-x="1116" 
d="M558 126q317 0 351 160h-531v139h688v-97q0 -341 -508 -341t-508 341v51q0 341 508 341q413 0 490 -224h-178q-79 85 -312 85q-355 0 -355 -202v-51q0 -202 355 -202z" />
    <glyph glyph-name="H" unicode="H" horiz-adv-x="1105" 
d="M872 0v283h-639v-283h-158v700h158v-272h639v272h158v-700h-158z" />
    <glyph glyph-name="I" unicode="I" horiz-adv-x="822" 
d="M60 558v142h702v-142h-272v-416h272v-142h-702v142h272v416h-272z" />
    <glyph glyph-name="J" unicode="J" horiz-adv-x="1007" 
d="M347 558v142h592v-356q-3 -357 -467 -357q-417 0 -462 293h159q13 -49 44 -81t77.5 -46t87.5 -19t95 -5q39 0 70.5 2.5t69.5 9.5t66 22t52 37.5t37 58.5t13 83v216h-434z" />
    <glyph glyph-name="K" unicode="K" horiz-adv-x="1017" 
d="M698 0l-245 367l-220 -123v-244h-158v700h158v-297l530 297h284l-460 -258l295 -442h-184z" />
    <glyph glyph-name="L" unicode="L" horiz-adv-x="841" 
d="M796 142v-142h-721v700h158v-558h563z" />
    <glyph glyph-name="M" unicode="M" horiz-adv-x="1232" 
d="M288 700l328 -515l328 515h213v-700h-158v506l-243 -382h-280l-243 382v-506h-158v700h213z" />
    <glyph glyph-name="N" unicode="N" horiz-adv-x="1065" 
d="M990 700v-700h-162l-595 511v-511h-158v700h162l595 -512v512h158z" />
    <glyph glyph-name="O" unicode="O" horiz-adv-x="1116" 
d="M50 379q0 341 508 341t508 -341v-51q0 -341 -508 -341t-508 341v51zM913 379q0 202 -355 202t-355 -202v-51q0 -202 355 -202t355 202v51z" />
    <glyph glyph-name="P" unicode="P" horiz-adv-x="954" 
d="M75 0v700h566q128 0 203 -69t75 -181t-75 -181t-203 -69h-408v-200h-158zM630 558h-397v-216h397q64 0 98.5 29t34.5 79t-34.5 79t-98.5 29z" />
    <glyph glyph-name="Q" unicode="Q" horiz-adv-x="1116" 
d="M890 0l-26 33q-118 -46 -306 -46q-508 0 -508 341v51q0 341 508 341t508 -341v-51q0 -140 -85 -223l84 -105h-175zM913 379q0 190 -311 201l282 -353q29 43 29 101v51zM203 328q0 -202 355 -202q132 0 211 26l-337 422q-229 -31 -229 -195v-51z" />
    <glyph glyph-name="R" unicode="R" horiz-adv-x="1151" 
d="M75 0v700h703q115 0 181 -55t66 -151q0 -99 -62.5 -145.5t-184.5 -56.5l-185 -17l598 -275h-316l-546 252l-96 -9v-243h-158zM788 558h-555v-182l555 50q81 7 81 68q0 64 -81 64z" />
    <glyph glyph-name="S" unicode="S" horiz-adv-x="969" 
d="M337 324q-126 19 -199 68.5t-73 127.5v27q0 83 54 118t162 35h303l141 -142h-511q0 -40 50.5 -64t154.5 -40l302 -46q218 -33 218 -177v-43q0 -98 -107.5 -149.5t-311.5 -51.5q-138 0 -242.5 29.5t-170.5 97t-69 166.5h154q28 -151 327 -151q266 1 266 70v14q0 26 -24 38
t-80 21z" />
    <glyph glyph-name="T" unicode="T" horiz-adv-x="992" 
d="M35 558v142h922v-142h-382v-558h-158v558h-382z" />
    <glyph glyph-name="U" unicode="U" horiz-adv-x="1070" 
d="M226 342q0 -56 20 -96.5t49 -63t73 -36t82 -17t86 -3.5q47 0 85 3.5t82 17t73 36t48.5 63t19.5 96.5v358h158v-356q0 -357 -467 -357t-467 357v356h158v-358z" />
    <glyph glyph-name="V" unicode="V" horiz-adv-x="1047" 
d="M1037 700l-367 -700h-293l-367 700h181l333 -634l332 634h181z" />
    <glyph glyph-name="W" unicode="W" horiz-adv-x="1234" 
d="M773 0l-156 395l-156 -395h-279l-140 700h164l127 -636l195 486h178l195 -486l127 636h164l-140 -700h-279z" />
    <glyph glyph-name="X" unicode="X" horiz-adv-x="1109" 
d="M793 0l-238 269l-239 -269h-200l273 308l-394 392h216l344 -342l343 342h216l-394 -392l273 -308h-200z" />
    <glyph glyph-name="Y" unicode="Y" horiz-adv-x="1028" 
d="M594 295v-295h-158v295l-441 405h223l297 -276l296 276h222z" />
    <glyph glyph-name="Z" unicode="Z" 
d="M961 142v-142h-846v142l545 416h-635v142h860v-142l-545 -416h621z" />
    <glyph glyph-name="bracketleft" unicode="[" horiz-adv-x="381" 
d="M85 -104v866h271v-115h-150v-636h150v-115h-271z" />
    <glyph glyph-name="backslash" unicode="\" horiz-adv-x="632" 
d="M0 700h149l483 -700h-149z" />
    <glyph glyph-name="bracketright" unicode="]" horiz-adv-x="381" 
d="M296 762v-866h-271v115h150v636h-150v115h271z" />
    <glyph glyph-name="underscore" unicode="_" horiz-adv-x="466" 
d="M466 -114h-466v45h466v-45z" />
    <glyph glyph-name="grave" unicode="`" horiz-adv-x="1061" 
d="M1049 533l-1049 287l12 45l1049 -287z" />
    <glyph glyph-name="a" unicode="a" horiz-adv-x="799" 
d="M590 0v107q-41 -55 -112.5 -87.5t-161.5 -32.5q-116 0 -180 43.5t-64 129.5v25q0 157 239 157h269q-17 48 -65 63t-138 15h-357l126 130h261q186 0 259 -69t73 -253v-228h-149zM351 118q62 0 130.5 16.5t108.5 41.5v52h-274q-53 0 -77.5 -9.5t-24.5 -36.5v-10
q0 -31 35 -42.5t102 -11.5z" />
    <glyph glyph-name="b" unicode="b" horiz-adv-x="850" 
d="M805 260q0 -123 -79.5 -198t-205.5 -75q-93 0 -169 37.5t-122 93.5v-118h-149v762h149v-328q46 56 122 93.5t169 37.5q126 0 205.5 -75t79.5 -198v-32zM461 427q-60 0 -124 -18.5t-108 -44.5v-176q44 -26 108 -44.5t124 -18.5q91 0 147 34t56 101v32q0 67 -56 101
t-147 34z" />
    <glyph glyph-name="c" unicode="c" horiz-adv-x="840" 
d="M421 120q91 0 150.5 25t77.5 74h145q-15 -114 -112.5 -173t-260.5 -59q-177 0 -276.5 69.5t-99.5 203.5v32q0 134 99.5 203.5t276.5 69.5q164 0 261.5 -59.5t112.5 -174.5h-145q-17 50 -77 75.5t-152 25.5q-109 0 -172 -35.5t-63 -104.5v-32q0 -69 63 -104.5t172 -35.5z
" />
    <glyph glyph-name="d" unicode="d" horiz-adv-x="850" 
d="M621 0v118q-46 -56 -122 -93.5t-169 -37.5q-126 0 -205.5 75t-79.5 198v32q0 123 79.5 198t205.5 75q93 0 169 -37.5t122 -93.5v328h149v-762h-149zM186 260q0 -67 56 -101t147 -34q60 0 124 18.5t108 44.5v176q-44 26 -108 44.5t-124 18.5q-91 0 -147 -34t-56 -101v-32z
" />
    <glyph glyph-name="e" unicode="e" horiz-adv-x="762" 
d="M399 565q157 0 245 -71t88 -207v-49h-544q15 -108 213 -108h233l-128 -130h-100q-182 0 -271.5 62t-89.5 198v22q0 136 95.5 209.5t258.5 73.5zM396 439q-159 0 -199 -97h371q-22 97 -172 97z" />
    <glyph glyph-name="f" unicode="f" horiz-adv-x="630" 
d="M30 420v130h109q0 96 68 154t190 58h168l155 -159l-275 35q-157 0 -157 -88h284v-130h-284v-420h-149v420h-109z" />
    <glyph glyph-name="g" unicode="g" horiz-adv-x="830" 
d="M750 69q0 -145 -99.5 -210t-293.5 -65h-221l-124 128h349q111 0 175.5 37t64.5 110v48q-45 -56 -117 -93t-164 -37q-118 0 -196.5 76.5t-78.5 196.5v32q0 120 78.5 196.5t196.5 76.5q92 0 164 -37t117 -93v115h149v-481zM186 260q0 -64 55.5 -99.5t137.5 -35.5
q59 0 119.5 18t102.5 45v176q-42 27 -102.5 45t-119.5 18q-82 0 -137.5 -35.5t-55.5 -99.5v-32z" />
    <glyph glyph-name="h" unicode="h" horiz-adv-x="824" 
d="M458 427q-57 0 -124.5 -19t-104.5 -48v-360h-149v762h149v-331q42 59 114.5 96.5t157.5 37.5q122 0 190 -71t68 -194v-300h-149v270q0 89 -33.5 123t-118.5 34z" />
    <glyph glyph-name="i" unicode="i" horiz-adv-x="309" 
d="M80 762h362v-123h-362v123zM80 550h149v-550h-149v550z" />
    <glyph glyph-name="j" unicode="j" horiz-adv-x="544" 
d="M315 762h362v-123h-362v123zM15 420v130h449v-483q0 -145 -88 -209t-261 -64v133q95 0 147.5 37.5t52.5 102.5v353h-300z" />
    <glyph glyph-name="k" unicode="k" horiz-adv-x="804" 
d="M540 0l-176 290l-135 -68v-222h-149v762h149v-395l365 183h288l-390 -196l216 -354h-168z" />
    <glyph glyph-name="l" unicode="l" horiz-adv-x="309" 
d="M80 762h149v-762h-149v762z" />
    <glyph glyph-name="m" unicode="m" horiz-adv-x="1294" 
d="M430 427q-47 0 -107 -20.5t-94 -46.5v-360h-149v550h149v-118q39 56 109.5 94.5t148.5 38.5q84 0 144 -41t83 -115q34 62 110 109t163 47q111 0 176.5 -68.5t65.5 -186.5v-310h-149v270q0 83 -34 120t-116 37q-48 0 -109.5 -21.5t-94.5 -47.5q3 -22 3 -48v-310h-149v270
q0 83 -34 120t-116 37z" />
    <glyph glyph-name="n" unicode="n" horiz-adv-x="824" 
d="M458 427q-57 0 -124.5 -19t-104.5 -48v-360h-149v550h149v-119q42 59 114.5 96.5t157.5 37.5q122 0 190 -71t68 -194v-300h-149v270q0 89 -33.5 123t-118.5 34z" />
    <glyph glyph-name="o" unicode="o" horiz-adv-x="842" 
d="M797 260q0 -134 -99.5 -203.5t-276.5 -69.5t-276.5 69.5t-99.5 203.5v32q0 134 99.5 203.5t276.5 69.5t276.5 -69.5t99.5 -203.5v-32zM656 260v32q0 69 -63 104.5t-172 35.5t-172 -35.5t-63 -104.5v-32q0 -69 63 -104.5t172 -35.5t172 35.5t63 104.5z" />
    <glyph glyph-name="p" unicode="p" horiz-adv-x="850" 
d="M520 -13q-93 0 -169 37.5t-122 93.5v-324h-149v756h149v-116q46 56 122 93.5t169 37.5q126 0 205.5 -75t79.5 -198v-32q0 -123 -79.5 -198t-205.5 -75zM461 427q-60 0 -124 -18.5t-108 -44.5v-176q44 -26 108 -44.5t124 -18.5q91 0 147 34t56 101v32q0 67 -56 101
t-147 34z" />
    <glyph glyph-name="q" unicode="q" horiz-adv-x="850" 
d="M770 550v-756h-149v324q-46 -56 -122 -93.5t-169 -37.5q-126 0 -205.5 75t-79.5 198v32q0 123 79.5 198t205.5 75q93 0 169 -37.5t122 -93.5v116h149zM186 260q0 -67 56 -101t147 -34q60 0 124 18.5t108 44.5v176q-44 26 -108 44.5t-124 18.5q-91 0 -147 -34t-56 -101
v-32z" />
    <glyph glyph-name="r" unicode="r" horiz-adv-x="546" 
d="M412 394q-128 0 -183 -56v-338h-149v550h149v-130q22 48 66 87.5t102 50.5l159 -164h-144z" />
    <glyph glyph-name="s" unicode="s" horiz-adv-x="719" 
d="M388 -13q-100 0 -176 21t-125 72t-50 127h145q7 -47 64 -72t142 -25q73 0 111.5 16t38.5 37v6q0 20 -40 28q-13 3 -54 9l-187 29q-101 16 -148.5 50t-47.5 105v9q0 166 278 166q136 0 218.5 -48t92.5 -137h-146q-13 32 -61.5 47.5t-113.5 15.5q-127 0 -127 -39v-6
q0 -16 24 -24t73 -16l211 -33q83 -13 125.5 -47t42.5 -96v-15q0 -180 -290 -180z" />
    <glyph glyph-name="t" unicode="t" horiz-adv-x="626" 
d="M613 420h-316v-220l303 -200h-254l-198 131v289h-125v130h125v150h149v-150h190z" />
    <glyph glyph-name="u" unicode="u" horiz-adv-x="804" 
d="M575 0v121q-43 -56 -111.5 -95t-144.5 -39q-119 0 -186.5 71.5t-67.5 193.5v298h149v-268q0 -89 33.5 -123t118.5 -34q106 0 209 65v360h149v-550h-149z" />
    <glyph glyph-name="v" unicode="v" horiz-adv-x="774" 
d="M764 550l-255 -550h-244l-255 550h172l205 -466l205 466h172z" />
    <glyph glyph-name="w" unicode="w" horiz-adv-x="988" 
d="M605 0l-111 293l-111 -293h-254l-107 550h158l87 -465l227 540l227 -540l87 465h158l-107 -550h-254z" />
    <glyph glyph-name="x" unicode="x" horiz-adv-x="784" 
d="M546 0l-154 222l-154 -222h-178l184 262l-244 288h185l207 -246l207 246h185l-244 -288l184 -262h-178z" />
    <glyph glyph-name="y" unicode="y" horiz-adv-x="737" 
d="M566 550h171l-398 -756h-171l108 206h-104l-155 550h159l136 -483z" />
    <glyph glyph-name="z" unicode="z" horiz-adv-x="728" 
d="M705 0h-591v130l345 290h-421v130h601v-130l-345 -290h411v-130z" />
    <glyph glyph-name="bar" unicode="|" horiz-adv-x="293" 
d="M169 -62h-45v824h45v-824z" />
    <glyph glyph-name="uni00A0" unicode="&#xa0;" horiz-adv-x="350" 
 />
    <glyph glyph-name="exclamdown" unicode="&#xa1;" horiz-adv-x="579" 
d="M70 406v144h439v-144h-439zM214 -206v553h151v-553h-151z" />
    <glyph glyph-name="cent" unicode="&#xa2;" horiz-adv-x="835" 
d="M794 219q-14 -111 -105.5 -169.5t-245.5 -62.5v-64h-45v64q-167 5 -260 74t-93 199v32q0 130 93 199t260 74v182h45v-182q154 -4 246 -63.5t106 -170.5h-145q-33 95 -207 101v-312q82 3 136 28t70 71h145zM186 260q0 -65 56.5 -100.5t155.5 -39.5v312
q-99 -4 -155.5 -39.5t-56.5 -100.5v-32z" />
    <glyph glyph-name="sterling" unicode="&#xa3;" horiz-adv-x="1256" 
d="M1181 142v-142h-1121v142h145v185h-145v45h145v7q0 173 127.5 257t360.5 84q219 0 345 -74t141 -226h-155q-10 45 -41 77.5t-78 50t-99 25.5t-113 8q-68 0 -124.5 -10t-105.5 -32t-77 -62.5t-28 -97.5v-7h666v-45h-666v-185h823z" />
    <glyph glyph-name="dieresis" unicode="&#xa8;" horiz-adv-x="418" 
d="M0 599v206h52v-206h-52zM212 700h206v-50h-206v50z" />
    <glyph glyph-name="copyright" unicode="&#xa9;" horiz-adv-x="678" 
d="M603 461v-215q0 -118 -70 -188.5t-194 -70.5t-194 70.5t-70 188.5v215q0 118 70 188.5t194 70.5t194 -70.5t70 -188.5zM560 246v215q0 98 -58.5 157.5t-162.5 59.5t-162.5 -59.5t-58.5 -157.5v-215q0 -98 58.5 -157.5t162.5 -59.5t162.5 59.5t58.5 157.5zM339 157
q-72 0 -111 40t-39 107v100q0 67 39 107t111 40t110.5 -38.5t40.5 -102.5h-86q-2 25 -19 40.5t-46 15.5q-30 0 -47.5 -17t-17.5 -45v-100q0 -28 17.5 -45.5t47.5 -17.5q29 0 46 15t19 41h86q-2 -64 -40.5 -102t-110.5 -38z" />
    <glyph glyph-name="guillemotleft" unicode="&#xab;" horiz-adv-x="582" 
d="M293 152v-167l-223 167v244l223 167v-167l-163 -122zM517 152v-167l-223 167v244l223 167v-167l-163 -122z" />
    <glyph glyph-name="uni00AD" unicode="&#xad;" horiz-adv-x="568" 
d="M498 228h-428v143h428v-143z" />
    <glyph glyph-name="macron" unicode="&#xaf;" horiz-adv-x="766" 
d="M0 700h766v-50h-766v50z" />
    <glyph glyph-name="degree" unicode="&#xb0;" horiz-adv-x="571" 
d="M285 720q251 0 251 -170v-26q0 -170 -251 -170q-250 0 -250 170v26q0 170 250 170zM285 452q29 0 50 2.5t41.5 10t31.5 23t11 39.5v20q0 24 -11 39.5t-31.5 23t-41.5 10t-50 2.5q-39 0 -65 -4.5t-46.5 -22t-20.5 -48.5v-20q0 -31 20.5 -48.5t46.5 -22t65 -4.5z" />
    <glyph glyph-name="acute" unicode="&#xb4;" horiz-adv-x="1061" 
d="M1049 865l12 -45l-1049 -287l-12 45z" />
    <glyph glyph-name="periodcentered" unicode="&#xb7;" horiz-adv-x="545" 
d="M160 300q0 47 33 80t80 33t79.5 -33t32.5 -80q0 -46 -32.5 -79t-79.5 -33t-80 32.5t-33 79.5z" />
    <glyph glyph-name="cedilla" unicode="&#xb8;" horiz-adv-x="180" 
d="M0 -194l146 146l34 -34l-146 -145z" />
    <glyph glyph-name="guillemotright" unicode="&#xbb;" horiz-adv-x="582" 
d="M288 152l-223 -167v167l163 122l-163 122v167l223 -167v-244zM512 152l-223 -167v167l163 122l-163 122v167l223 -167v-244z" />
    <glyph glyph-name="questiondown" unicode="&#xbf;" horiz-adv-x="796" 
d="M282 406v144h439v-144h-439zM742 34l-39 -240h-686q0 58 23 110.5t55 88.5t80.5 69.5t84 51.5t80.5 38q50 22 67.5 44.5t17.5 71.5v89h152v-129q0 -121 -172 -197q-113 -50 -164 -95h334l16 98h151z" />
    <glyph glyph-name="Agrave" unicode="&#xc0;" horiz-adv-x="1091" 
d="M910 0l-101 176h-527l-101 -176h-171l402 700h231l-804 220l12 45l1049 -287l-12 -45l-202 55l395 -688h-171zM361 314h369l-184 321z" />
    <glyph glyph-name="Aacute" unicode="&#xc1;" horiz-adv-x="1091" 
d="M910 0l-101 176h-527l-101 -176h-171l395 688l-201 -55l-12 45l1049 287l12 -45l-804 -220h230l402 -700h-171zM361 314h369l-184 321z" />
    <glyph glyph-name="Acircumflex" unicode="&#xc2;" horiz-adv-x="1091" 
d="M761 780l-216 133l-458 -282l-24 41l483 294l239 -144zM910 0l-101 176h-527l-101 -176h-171l402 700h267l402 -700h-171zM361 314h369l-184 321z" />
    <glyph glyph-name="Atilde" unicode="&#xc3;" horiz-adv-x="1091" 
d="M898 965l23 -43l-375 -201l-79 57l-272 -144l-23 43l298 158l79 -57zM910 0l-101 176h-527l-101 -176h-171l402 700h267l402 -700h-171zM361 314h369l-184 321z" />
    <glyph glyph-name="Adieresis" unicode="&#xc4;" horiz-adv-x="1091" 
d="M418 749v206h52v-206h-52zM630 850h206v-50h-206v50zM910 0l-101 176h-527l-101 -176h-171l402 700h267l402 -700h-171zM361 314h369l-184 321z" />
    <glyph glyph-name="Aring" unicode="&#xc5;" horiz-adv-x="1091" 
d="M911 0l-101 176h-529l-101 -176h-170l320 556q-28 53 -28 113q0 101 71.5 173t172.5 72t173 -72t72 -173q0 -61 -28 -114l318 -555h-170zM546 470q83 0 141.5 58t58.5 141t-58.5 141.5t-141.5 58.5t-141 -58.5t-58 -141.5t58.5 -141t140.5 -58zM546 425q-57 0 -107 25
l-79 -136h371l-78 136q-50 -25 -107 -25z" />
    <glyph glyph-name="AE" unicode="&#xc6;" horiz-adv-x="1568" 
d="M1513 142v-142h-603l-101 176h-527l-101 -176h-171l402 700h1101v-142h-752l76 -133h512v-139h-432l82 -144h514zM361 314h369l-184 321z" />
    <glyph glyph-name="Ccedilla" unicode="&#xc7;" horiz-adv-x="1114" 
d="M558 126q311 0 349 154h156q-33 -293 -505 -293q-508 0 -508 341v51q0 341 508 341q477 0 506 -300h-155q-33 161 -351 161q-355 0 -355 -202v-51q0 -202 355 -202zM468 -194l146 146l34 -34l-146 -145z" />
    <glyph glyph-name="Egrave" unicode="&#xc8;" horiz-adv-x="921" 
d="M75 0v700h619l-804 220l12 45l1049 -287l-12 -45l-73 20v-95h-633v-133h469v-139h-469v-144h633v-142h-791z" />
    <glyph glyph-name="Eacute" unicode="&#xc9;" horiz-adv-x="921" 
d="M1031 920l-804 -220h639v-142h-633v-133h469v-139h-469v-144h633v-142h-791v658l-93 -25l-12 45l1049 287z" />
    <glyph glyph-name="Ecircumflex" unicode="&#xca;" horiz-adv-x="921" 
d="M685 780l-216 133l-346 -213h743v-142h-633v-133h469v-139h-469v-144h633v-142h-791v670l-64 -39l-24 41l483 294l239 -144z" />
    <glyph glyph-name="Edieresis" unicode="&#xcb;" horiz-adv-x="921" 
d="M342 749v206h52v-206h-52zM554 850h206v-50h-206v50zM75 0v700h791v-142h-633v-133h469v-139h-469v-144h633v-142h-791z" />
    <glyph glyph-name="Igrave" unicode="&#xcc;" horiz-adv-x="822" 
d="M60 558v142h535l-804 220l12 45l1049 -287l-12 -45l-78 21v-96h-272v-416h272v-142h-702v142h272v416h-272z" />
    <glyph glyph-name="Iacute" unicode="&#xcd;" horiz-adv-x="822" 
d="M1031 920l-804 -220h535v-142h-272v-416h272v-142h-702v142h272v416h-272v96l-78 -21l-12 45l1049 287z" />
    <glyph glyph-name="Icircumflex" unicode="&#xce;" horiz-adv-x="822" 
d="M626 780l-216 133l-346 -213h698v-142h-272v-416h272v-142h-702v142h272v416h-272v139l-108 -66l-24 41l483 294l239 -144z" />
    <glyph glyph-name="Idieresis" unicode="&#xcf;" horiz-adv-x="822" 
d="M283 749v206h52v-206h-52zM495 850h206v-50h-206v50zM60 558v142h702v-142h-272v-416h272v-142h-702v142h272v416h-272z" />
    <glyph glyph-name="Eth" unicode="&#xd0;" horiz-adv-x="1063" 
d="M-5 373h110v327h423q242 0 363.5 -78t121.5 -257v-30q0 -179 -121.5 -257t-363.5 -78h-423v328h-110v45zM672 328h-409v-186h265q75 0 128.5 7t103 26.5t75 59.5t25.5 100v30q0 60 -25.5 100t-75 59.5t-103 26.5t-128.5 7h-265v-185h409v-45z" />
    <glyph glyph-name="Ntilde" unicode="&#xd1;" horiz-adv-x="1065" 
d="M990 700v-700h-162l-595 511v-511h-158v700h136l255 135l79 -57l349 187l23 -43l-375 -201l-79 57l-196 -104l565 -486v512h158z" />
    <glyph glyph-name="Ograve" unicode="&#xd2;" horiz-adv-x="1116" 
d="M1134 633l-1049 287l12 45l1049 -287zM50 379q0 341 508 341t508 -341v-51q0 -341 -508 -341t-508 341v51zM913 379q0 202 -355 202t-355 -202v-51q0 -202 355 -202t355 202v51z" />
    <glyph glyph-name="Oacute" unicode="&#xd3;" horiz-adv-x="1116" 
d="M1019 965l12 -45l-1049 -287l-12 45zM50 379q0 341 508 341t508 -341v-51q0 -341 -508 -341t-508 341v51zM913 379q0 202 -355 202t-355 -202v-51q0 -202 355 -202t355 202v51z" />
    <glyph glyph-name="Ocircumflex" unicode="&#xd4;" horiz-adv-x="1116" 
d="M773 780l-216 133l-458 -282l-24 41l483 294l239 -144zM50 379q0 341 508 341t508 -341v-51q0 -341 -508 -341t-508 341v51zM913 379q0 202 -355 202t-355 -202v-51q0 -202 355 -202t355 202v51z" />
    <glyph glyph-name="Otilde" unicode="&#xd5;" horiz-adv-x="1116" 
d="M726 965l23 -43l-375 -201l-79 57l-272 -144l-23 43l298 158l79 -57zM50 379q0 341 508 341t508 -341v-51q0 -341 -508 -341t-508 341v51zM913 379q0 202 -355 202t-355 -202v-51q0 -202 355 -202t355 202v51z" />
    <glyph glyph-name="Odieresis" unicode="&#xd6;" horiz-adv-x="1116" 
d="M430 749v206h52v-206h-52zM642 850h206v-50h-206v50zM50 379q0 341 508 341t508 -341v-51q0 -341 -508 -341t-508 341v51zM913 379q0 202 -355 202t-355 -202v-51q0 -202 355 -202t355 202v51z" />
    <glyph glyph-name="multiply" unicode="&#xd7;" horiz-adv-x="595" 
d="M267 300l-136 136l32 31l135 -135l135 135l32 -31l-136 -136l136 -136l-32 -31l-135 135l-135 -135l-32 31z" />
    <glyph glyph-name="Oslash" unicode="&#xd8;" horiz-adv-x="1116" 
d="M558 -13q-150 0 -256 29l-153 -222h-58l164 238q-205 79 -205 296v51q0 341 508 341t508 -341v-51q0 -341 -508 -341zM203 328q0 -126 136 -174l292 425q-48 2 -73 2q-355 0 -355 -202v-51zM913 379q0 163 -227 194l-298 -432q71 -15 170 -15q355 0 355 202v51z" />
    <glyph glyph-name="Ugrave" unicode="&#xd9;" horiz-adv-x="1070" 
d="M1002 344q0 -357 -467 -357t-467 357v356h158v-358q0 -56 20 -96.5t49 -63t73 -36t82 -17t86 -3.5q47 0 85 3.5t82 17t73 36t48.5 63t19.5 96.5v358l-805 220l12 45l1049 -287l-12 -45l-86 24v-313z" />
    <glyph glyph-name="Uacute" unicode="&#xda;" horiz-adv-x="1070" 
d="M1002 344q0 -357 -467 -357t-467 357v313l-86 -24l-12 45l1049 287l12 -45l-805 -220v-358q0 -56 20 -96.5t49 -63t73 -36t82 -17t86 -3.5q47 0 85 3.5t82 17t73 36t48.5 63t19.5 96.5v358h158v-356z" />
    <glyph glyph-name="Ucircumflex" unicode="&#xdb;" horiz-adv-x="1070" 
d="M1002 344q0 -357 -467 -357t-467 357v332l-74 -45l-24 41l483 294l239 -144l-24 -42l-216 133l-346 -213h120v-358q0 -56 20 -96.5t49 -63t73 -36t82 -17t86 -3.5q47 0 85 3.5t82 17t73 36t48.5 63t19.5 96.5v358h158v-356z" />
    <glyph glyph-name="Udieresis" unicode="&#xdc;" horiz-adv-x="1070" 
d="M407 749v206h52v-206h-52zM619 850h206v-50h-206v50zM226 342q0 -56 20 -96.5t49 -63t73 -36t82 -17t86 -3.5q47 0 85 3.5t82 17t73 36t48.5 63t19.5 96.5v358h158v-356q0 -357 -467 -357t-467 357v356h158v-358z" />
    <glyph glyph-name="Yacute" unicode="&#xdd;" horiz-adv-x="1028" 
d="M594 295v-295h-158v295l-441 405h177l969 265l12 -45l-905 -248l267 -248l296 276h222z" />
    <glyph glyph-name="Thorn" unicode="&#xde;" horiz-adv-x="954" 
d="M641 100h-410v-100h-156v700h156v-100h410q128 0 203 -69t75 -181t-75 -181t-203 -69zM630 458h-399v-216h399q64 0 98.5 29t34.5 79t-34.5 79t-98.5 29z" />
    <glyph glyph-name="germandbls" unicode="&#xdf;" horiz-adv-x="892" 
d="M591 -13q-139 -1 -229.5 53.5t-91.5 166.5h145q7 -47 57 -72.5t119 -24.5q58 1 89 15.5t31 32.5v6q0 21 -73 37q-14 3 -21 5l-127 29q-106 24 -151 55t-45 100v9q0 83 64 124.5t184 41.5h29l-185 73q-157 0 -157 -88v-550h-149v550q0 96 68 154t190 58h168l271 -278
q38 -40 46 -104h-146q-13 31 -54.5 47t-90.5 16q-97 0 -97 -37v-6q0 -15 20 -22.5t62 -16.5l15 -3l151 -33q86 -19 127 -50.5t41 -92.5v-15q0 -178 -260 -180z" />
    <glyph glyph-name="agrave" unicode="&#xe0;" horiz-adv-x="799" 
d="M742 533l-1049 287l12 45l1049 -287zM590 0v107q-41 -55 -112.5 -87.5t-161.5 -32.5q-116 0 -180 43.5t-64 129.5v25q0 157 239 157h269q-17 48 -65 63t-138 15h-357l126 130h261q186 0 259 -69t73 -253v-228h-149zM351 118q62 0 130.5 16.5t108.5 41.5v52h-274
q-53 0 -77.5 -9.5t-24.5 -36.5v-10q0 -31 35 -42.5t102 -11.5z" />
    <glyph glyph-name="aacute" unicode="&#xe1;" horiz-adv-x="799" 
d="M1095 865l12 -45l-1049 -287l-12 45zM590 0v107q-41 -55 -112.5 -87.5t-161.5 -32.5q-116 0 -180 43.5t-64 129.5v25q0 157 239 157h269q-17 48 -65 63t-138 15h-357l126 130h261q186 0 259 -69t73 -253v-228h-149zM351 118q62 0 130.5 16.5t108.5 41.5v52h-274
q-53 0 -77.5 -9.5t-24.5 -36.5v-10q0 -31 35 -42.5t102 -11.5z" />
    <glyph glyph-name="acircumflex" unicode="&#xe2;" horiz-adv-x="799" 
d="M615 680l-216 133l-458 -282l-24 41l483 294l239 -144zM590 0v107q-41 -55 -112.5 -87.5t-161.5 -32.5q-116 0 -180 43.5t-64 129.5v25q0 157 239 157h269q-17 48 -65 63t-138 15h-357l126 130h261q186 0 259 -69t73 -253v-228h-149zM351 118q62 0 130.5 16.5t108.5 41.5
v52h-274q-53 0 -77.5 -9.5t-24.5 -36.5v-10q0 -31 35 -42.5t102 -11.5z" />
    <glyph glyph-name="atilde" unicode="&#xe3;" horiz-adv-x="799" 
d="M752 865l23 -43l-375 -201l-79 57l-272 -144l-23 43l298 158l79 -57zM590 0v107q-41 -55 -112.5 -87.5t-161.5 -32.5q-116 0 -180 43.5t-64 129.5v25q0 157 239 157h269q-17 48 -65 63t-138 15h-357l126 130h261q186 0 259 -69t73 -253v-228h-149zM351 118
q62 0 130.5 16.5t108.5 41.5v52h-274q-53 0 -77.5 -9.5t-24.5 -36.5v-10q0 -31 35 -42.5t102 -11.5z" />
    <glyph glyph-name="adieresis" unicode="&#xe4;" horiz-adv-x="799" 
d="M272 599v206h52v-206h-52zM484 700h206v-50h-206v50zM590 0v107q-41 -55 -112.5 -87.5t-161.5 -32.5q-116 0 -180 43.5t-64 129.5v25q0 157 239 157h269q-17 48 -65 63t-138 15h-357l126 130h261q186 0 259 -69t73 -253v-228h-149zM351 118q62 0 130.5 16.5t108.5 41.5
v52h-274q-53 0 -77.5 -9.5t-24.5 -36.5v-10q0 -31 35 -42.5t102 -11.5z" />
    <glyph glyph-name="aring" unicode="&#xe5;" horiz-adv-x="799" 
d="M590 0v107q-41 -55 -112.5 -87.5t-161.5 -32.5q-116 0 -180 43.5t-64 129.5v25q0 157 239 157h269q-17 48 -65 63t-138 15h-357l126 130h113q-47 34 -75 86.5t-28 112.5q0 101 71.5 173t172.5 72t173 -72t72 -173q0 -64 -31.5 -119t-84.5 -88q115 -19 162.5 -90.5
t47.5 -223.5v-228h-149zM201 749q0 -83 58.5 -141t140.5 -58q83 0 141.5 58t58.5 141t-58.5 141.5t-141.5 58.5t-141 -58.5t-58 -141.5zM351 118q62 0 130.5 16.5t108.5 41.5v52h-274q-53 0 -77.5 -9.5t-24.5 -36.5v-10q0 -31 35 -42.5t102 -11.5z" />
    <glyph glyph-name="ae" unicode="&#xe6;" horiz-adv-x="1315" 
d="M952 565q157 0 245 -71t88 -207v-49h-544q15 -108 213 -108h233l-128 -130h-100q-136 0 -220 34v-34h-149v107q-41 -55 -112.5 -87.5t-161.5 -32.5q-116 0 -180 43.5t-64 129.5v25q0 157 239 157h269q-17 48 -65 63t-138 15h-357l126 130h261q196 0 266 -76q94 91 279 91
zM949 439q-159 0 -199 -97h371q-22 97 -172 97zM351 118q62 0 130.5 16.5t108.5 41.5v52h-274q-53 0 -77.5 -9.5t-24.5 -36.5v-10q0 -31 35 -42.5t102 -11.5z" />
    <glyph glyph-name="ccedilla" unicode="&#xe7;" horiz-adv-x="840" 
d="M421 120q91 0 150.5 25t77.5 74h145q-15 -114 -112.5 -173t-260.5 -59q-177 0 -276.5 69.5t-99.5 203.5v32q0 134 99.5 203.5t276.5 69.5q164 0 261.5 -59.5t112.5 -174.5h-145q-17 50 -77 75.5t-152 25.5q-109 0 -172 -35.5t-63 -104.5v-32q0 -69 63 -104.5t172 -35.5z
M331 -194l146 146l34 -34l-146 -145z" />
    <glyph glyph-name="egrave" unicode="&#xe8;" horiz-adv-x="762" 
d="M741 533l-1049 287l12 45l1049 -287zM399 565q157 0 245 -71t88 -207v-49h-544q15 -108 213 -108h233l-128 -130h-100q-182 0 -271.5 62t-89.5 198v22q0 136 95.5 209.5t258.5 73.5zM396 439q-159 0 -199 -97h371q-22 97 -172 97z" />
    <glyph glyph-name="eacute" unicode="&#xe9;" horiz-adv-x="762" 
d="M1094 865l12 -45l-1049 -287l-12 45zM399 565q157 0 245 -71t88 -207v-49h-544q15 -108 213 -108h233l-128 -130h-100q-182 0 -271.5 62t-89.5 198v22q0 136 95.5 209.5t258.5 73.5zM396 439q-159 0 -199 -97h371q-22 97 -172 97z" />
    <glyph glyph-name="ecircumflex" unicode="&#xea;" horiz-adv-x="762" 
d="M614 680l-216 133l-458 -282l-24 41l483 294l239 -144zM399 565q157 0 245 -71t88 -207v-49h-544q15 -108 213 -108h233l-128 -130h-100q-182 0 -271.5 62t-89.5 198v22q0 136 95.5 209.5t258.5 73.5zM396 439q-159 0 -199 -97h371q-22 97 -172 97z" />
    <glyph glyph-name="edieresis" unicode="&#xeb;" horiz-adv-x="762" 
d="M271 599v206h52v-206h-52zM483 700h206v-50h-206v50zM399 565q157 0 245 -71t88 -207v-49h-544q15 -108 213 -108h233l-128 -130h-100q-182 0 -271.5 62t-89.5 198v22q0 136 95.5 209.5t258.5 73.5zM396 439q-159 0 -199 -97h371q-22 97 -172 97z" />
    <glyph glyph-name="igrave" unicode="&#xec;" horiz-adv-x="309" 
d="M496 533l-1049 287l12 45l1049 -287zM80 550h149v-550h-149v550z" />
    <glyph glyph-name="iacute" unicode="&#xed;" horiz-adv-x="309" 
d="M849 865l12 -45l-1049 -287l-12 45zM80 550h149v-550h-149v550z" />
    <glyph glyph-name="icircumflex" unicode="&#xee;" horiz-adv-x="309" 
d="M369 680l-216 133l-458 -282l-24 41l483 294l239 -144zM80 550h149v-550h-149v550z" />
    <glyph glyph-name="idieresis" unicode="&#xef;" horiz-adv-x="309" 
d="M26 599v206h52v-206h-52zM238 700h206v-50h-206v50zM80 550h149v-550h-149v550z" />
    <glyph glyph-name="eth" unicode="&#xf0;" horiz-adv-x="842" 
d="M45 650v50h956v-50h-540l219 -143q117 -77 117 -215v-32q0 -134 -99.5 -203.5t-276.5 -69.5t-276.5 69.5t-99.5 203.5v32q0 123 83.5 191.5t235.5 79.5l-133 87h-186zM656 260v32q0 69 -63 104.5t-172 35.5t-172 -35.5t-63 -104.5v-32q0 -69 63 -104.5t172 -35.5
t172 35.5t63 104.5z" />
    <glyph glyph-name="ntilde" unicode="&#xf1;" horiz-adv-x="824" 
d="M458 427q-57 0 -124.5 -19t-104.5 -48v-360h-149v540l-12 -6l-23 43l298 158l79 -57l349 187l23 -43l-375 -201l-79 57l-242 -128h131v-119q42 59 114.5 96.5t157.5 37.5q122 0 190 -71t68 -194v-300h-149v270q0 89 -33.5 123t-118.5 34z" />
    <glyph glyph-name="ograve" unicode="&#xf2;" horiz-adv-x="842" 
d="M763 533l-1049 287l12 45l1049 -287zM797 260q0 -134 -99.5 -203.5t-276.5 -69.5t-276.5 69.5t-99.5 203.5v32q0 134 99.5 203.5t276.5 69.5t276.5 -69.5t99.5 -203.5v-32zM656 260v32q0 69 -63 104.5t-172 35.5t-172 -35.5t-63 -104.5v-32q0 -69 63 -104.5t172 -35.5
t172 35.5t63 104.5z" />
    <glyph glyph-name="oacute" unicode="&#xf3;" horiz-adv-x="842" 
d="M1116 865l12 -45l-1049 -287l-12 45zM797 260q0 -134 -99.5 -203.5t-276.5 -69.5t-276.5 69.5t-99.5 203.5v32q0 134 99.5 203.5t276.5 69.5t276.5 -69.5t99.5 -203.5v-32zM656 260v32q0 69 -63 104.5t-172 35.5t-172 -35.5t-63 -104.5v-32q0 -69 63 -104.5t172 -35.5
t172 35.5t63 104.5z" />
    <glyph glyph-name="ocircumflex" unicode="&#xf4;" horiz-adv-x="842" 
d="M636 680l-216 133l-458 -282l-24 41l483 294l239 -144zM797 260q0 -134 -99.5 -203.5t-276.5 -69.5t-276.5 69.5t-99.5 203.5v32q0 134 99.5 203.5t276.5 69.5t276.5 -69.5t99.5 -203.5v-32zM656 260v32q0 69 -63 104.5t-172 35.5t-172 -35.5t-63 -104.5v-32
q0 -69 63 -104.5t172 -35.5t172 35.5t63 104.5z" />
    <glyph glyph-name="otilde" unicode="&#xf5;" horiz-adv-x="842" 
d="M773 865l23 -43l-375 -201l-79 57l-272 -144l-23 43l298 158l79 -57zM797 260q0 -134 -99.5 -203.5t-276.5 -69.5t-276.5 69.5t-99.5 203.5v32q0 134 99.5 203.5t276.5 69.5t276.5 -69.5t99.5 -203.5v-32zM656 260v32q0 69 -63 104.5t-172 35.5t-172 -35.5t-63 -104.5
v-32q0 -69 63 -104.5t172 -35.5t172 35.5t63 104.5z" />
    <glyph glyph-name="odieresis" unicode="&#xf6;" horiz-adv-x="842" 
d="M293 599v206h52v-206h-52zM505 700h206v-50h-206v50zM797 260q0 -134 -99.5 -203.5t-276.5 -69.5t-276.5 69.5t-99.5 203.5v32q0 134 99.5 203.5t276.5 69.5t276.5 -69.5t99.5 -203.5v-32zM656 260v32q0 69 -63 104.5t-172 35.5t-172 -35.5t-63 -104.5v-32
q0 -69 63 -104.5t172 -35.5t172 35.5t63 104.5z" />
    <glyph glyph-name="oslash" unicode="&#xf8;" horiz-adv-x="842" 
d="M421 -13q-87 0 -158 17l-145 -210h-58l155 225q-170 65 -170 241v32q0 134 99.5 203.5t276.5 69.5q87 0 158 -17l105 152h58l-115 -167q170 -65 170 -241v-32q0 -134 -99.5 -203.5t-276.5 -69.5zM186 260q0 -90 109 -124l201 291q-38 5 -75 5q-109 0 -172 -35.5
t-63 -104.5v-32zM656 292q0 91 -110 124l-200 -291q38 -5 75 -5q109 0 172 35.5t63 104.5v32z" />
    <glyph glyph-name="ugrave" unicode="&#xf9;" horiz-adv-x="804" 
d="M822 533l-1049 287l12 45l1049 -287zM575 0v121q-43 -56 -111.5 -95t-144.5 -39q-119 0 -186.5 71.5t-67.5 193.5v298h149v-268q0 -89 33.5 -123t118.5 -34q106 0 209 65v360h149v-550h-149z" />
    <glyph glyph-name="uacute" unicode="&#xfa;" horiz-adv-x="804" 
d="M1003 865l12 -45l-1049 -287l-12 45zM575 0v121q-43 -56 -111.5 -95t-144.5 -39q-119 0 -186.5 71.5t-67.5 193.5v298h149v-268q0 -89 33.5 -123t118.5 -34q106 0 209 65v360h149v-550h-149z" />
    <glyph glyph-name="ucircumflex" unicode="&#xfb;" horiz-adv-x="804" 
d="M609 680l-216 133l-458 -282l-24 41l483 294l239 -144zM575 0v121q-43 -56 -111.5 -95t-144.5 -39q-119 0 -186.5 71.5t-67.5 193.5v298h149v-268q0 -89 33.5 -123t118.5 -34q106 0 209 65v360h149v-550h-149z" />
    <glyph glyph-name="udieresis" unicode="&#xfc;" horiz-adv-x="804" 
d="M266 599v206h52v-206h-52zM478 700h206v-50h-206v50zM575 0v121q-43 -56 -111.5 -95t-144.5 -39q-119 0 -186.5 71.5t-67.5 193.5v298h149v-268q0 -89 33.5 -123t118.5 -34q106 0 209 65v360h149v-550h-149z" />
    <glyph glyph-name="yacute" unicode="&#xfd;" horiz-adv-x="737" 
d="M737 550l-398 -756h-171l108 206h-104l-153 543l-37 -10l-12 45l1049 287l12 -45l-987 -270h132l136 -483l254 483h171z" />
    <glyph glyph-name="thorn" unicode="&#xfe;" horiz-adv-x="850" 
d="M520 -13q-93 0 -169 37.5t-122 93.5v-324h-149v968h149v-328q46 56 122 93.5t169 37.5q126 0 205.5 -75t79.5 -198v-32q0 -123 -79.5 -198t-205.5 -75zM461 427q-60 0 -124 -18.5t-108 -44.5v-176q44 -26 108 -44.5t124 -18.5q91 0 147 34t56 101v32q0 67 -56 101
t-147 34z" />
    <glyph glyph-name="ydieresis" unicode="&#xff;" horiz-adv-x="737" 
d="M243 599v206h52v-206h-52zM455 700h206v-50h-206v50zM566 550h171l-398 -756h-171l108 206h-104l-155 550h159l136 -483z" />
    <glyph glyph-name="Amacron" unicode="&#x100;" horiz-adv-x="1091" 
d="M325 800h766v-50h-766v50zM910 0l-101 176h-527l-101 -176h-171l402 700h267l402 -700h-171zM361 314h369l-184 321z" />
    <glyph glyph-name="amacron" unicode="&#x101;" horiz-adv-x="799" 
d="M179 700h766v-50h-766v50zM590 0v107q-41 -55 -112.5 -87.5t-161.5 -32.5q-116 0 -180 43.5t-64 129.5v25q0 157 239 157h269q-17 48 -65 63t-138 15h-357l126 130h261q186 0 259 -69t73 -253v-228h-149zM351 118q62 0 130.5 16.5t108.5 41.5v52h-274q-53 0 -77.5 -9.5
t-24.5 -36.5v-10q0 -31 35 -42.5t102 -11.5z" />
    <glyph glyph-name="Abreve" unicode="&#x102;" horiz-adv-x="1091" 
d="M656 750h-220q-65 0 -93 29.5t-28 86.5h52q0 -21 3 -33.5t19 -22.5t47 -10h220q44 0 56.5 16.5t12.5 49.5v143h52v-143q0 -57 -28 -86.5t-93 -29.5zM910 0l-101 176h-527l-101 -176h-171l402 700h267l402 -700h-171zM361 314h369l-184 321z" />
    <glyph glyph-name="abreve" unicode="&#x103;" horiz-adv-x="799" 
d="M510 650h-220q-65 0 -93 29.5t-28 86.5h52q0 -21 3 -33.5t19 -22.5t47 -10h220q44 0 56.5 16.5t12.5 49.5v143h52v-143q0 -57 -28 -86.5t-93 -29.5zM590 0v107q-41 -55 -112.5 -87.5t-161.5 -32.5q-116 0 -180 43.5t-64 129.5v25q0 157 239 157h269q-17 48 -65 63
t-138 15h-357l126 130h261q186 0 259 -69t73 -253v-228h-149zM351 118q62 0 130.5 16.5t108.5 41.5v52h-274q-53 0 -77.5 -9.5t-24.5 -36.5v-10q0 -31 35 -42.5t102 -11.5z" />
    <glyph glyph-name="Aogonek" unicode="&#x104;" horiz-adv-x="1091" 
d="M1031 -206v206h-121l-101 176h-527l-101 -176h-171l402 700h267l402 -700v-206h-50zM361 314h369l-184 321z" />
    <glyph glyph-name="aogonek" unicode="&#x105;" horiz-adv-x="799" 
d="M689 -206v206h-99v107q-41 -55 -112.5 -87.5t-161.5 -32.5q-116 0 -180 43.5t-64 129.5v25q0 157 239 157h269q-17 48 -65 63t-138 15h-357l126 130h261q186 0 259 -69t73 -253v-434h-50zM351 118q62 0 130.5 16.5t108.5 41.5v52h-274q-53 0 -77.5 -9.5t-24.5 -36.5v-10
q0 -31 35 -42.5t102 -11.5z" />
    <glyph glyph-name="Cacute" unicode="&#x106;" horiz-adv-x="1114" 
d="M1019 965l12 -45l-1049 -287l-12 45zM558 126q311 0 349 154h156q-33 -293 -505 -293q-508 0 -508 341v51q0 341 508 341q477 0 506 -300h-155q-33 161 -351 161q-355 0 -355 -202v-51q0 -202 355 -202z" />
    <glyph glyph-name="cacute" unicode="&#x107;" horiz-adv-x="840" 
d="M1116 865l12 -45l-1049 -287l-12 45zM421 120q91 0 150.5 25t77.5 74h145q-15 -114 -112.5 -173t-260.5 -59q-177 0 -276.5 69.5t-99.5 203.5v32q0 134 99.5 203.5t276.5 69.5q164 0 261.5 -59.5t112.5 -174.5h-145q-17 50 -77 75.5t-152 25.5q-109 0 -172 -35.5
t-63 -104.5v-32q0 -69 63 -104.5t172 -35.5z" />
    <glyph glyph-name="Ccircumflex" unicode="&#x108;" horiz-adv-x="1114" 
d="M773 780l-216 133l-458 -282l-24 41l483 294l239 -144zM558 126q311 0 349 154h156q-33 -293 -505 -293q-508 0 -508 341v51q0 341 508 341q477 0 506 -300h-155q-33 161 -351 161q-355 0 -355 -202v-51q0 -202 355 -202z" />
    <glyph glyph-name="ccircumflex" unicode="&#x109;" horiz-adv-x="840" 
d="M636 680l-216 133l-458 -282l-24 41l483 294l239 -144zM421 120q91 0 150.5 25t77.5 74h145q-15 -114 -112.5 -173t-260.5 -59q-177 0 -276.5 69.5t-99.5 203.5v32q0 134 99.5 203.5t276.5 69.5q164 0 261.5 -59.5t112.5 -174.5h-145q-17 50 -77 75.5t-152 25.5
q-109 0 -172 -35.5t-63 -104.5v-32q0 -69 63 -104.5t172 -35.5z" />
    <glyph glyph-name="Cdotaccent" unicode="&#x10a;" horiz-adv-x="1114" 
d="M533 749v206h50v-206h-50zM558 126q311 0 349 154h156q-33 -293 -505 -293q-508 0 -508 341v51q0 341 508 341q477 0 506 -300h-155q-33 161 -351 161q-355 0 -355 -202v-51q0 -202 355 -202z" />
    <glyph glyph-name="cdotaccent" unicode="&#x10b;" horiz-adv-x="840" 
d="M396 599v206h50v-206h-50zM421 120q91 0 150.5 25t77.5 74h145q-15 -114 -112.5 -173t-260.5 -59q-177 0 -276.5 69.5t-99.5 203.5v32q0 134 99.5 203.5t276.5 69.5q164 0 261.5 -59.5t112.5 -174.5h-145q-17 50 -77 75.5t-152 25.5q-109 0 -172 -35.5t-63 -104.5v-32
q0 -69 63 -104.5t172 -35.5z" />
    <glyph glyph-name="Ccaron" unicode="&#x10c;" horiz-adv-x="1114" 
d="M1063 280q-33 -293 -505 -293q-508 0 -508 341v51q0 319 446 340l-421 256l24 41l458 -282l216 133l24 -42l-177 -106q417 -19 444 -299h-155q-33 161 -351 161q-355 0 -355 -202v-51q0 -202 355 -202q311 0 349 154h156z" />
    <glyph glyph-name="ccaron" unicode="&#x10d;" horiz-adv-x="840" 
d="M794 219q-15 -114 -112.5 -173t-260.5 -59q-177 0 -276.5 69.5t-99.5 203.5v32q0 124 84.5 192.5t238.5 78.5l-430 262l24 41l458 -282l216 133l24 -42l-185 -112q140 -9 223.5 -67.5t96.5 -164.5h-145q-17 50 -77 75.5t-152 25.5q-109 0 -172 -35.5t-63 -104.5v-32
q0 -69 63 -104.5t172 -35.5q91 0 150.5 25t77.5 74h145z" />
    <glyph glyph-name="Dcaron" unicode="&#x10e;" horiz-adv-x="1033" 
d="M75 0v700h410l-452 275l24 41l458 -282l216 133l24 -42l-209 -126q218 -7 327.5 -85.5t109.5 -248.5v-30q0 -179 -121.5 -257t-363.5 -78h-423zM498 558h-265v-416h265q75 0 128.5 7t103 26.5t75 59.5t25.5 100v30q0 60 -25.5 100t-75 59.5t-103 26.5t-128.5 7z" />
    <glyph glyph-name="dcaron" unicode="&#x10f;" horiz-adv-x="850" 
d="M621 0v118q-46 -56 -122 -93.5t-169 -37.5q-126 0 -205.5 75t-79.5 198v32q0 123 79.5 198t205.5 75q93 0 169 -37.5t122 -93.5v328h149v-762h-149zM820 556v206h50v-206h-50zM186 260q0 -67 56 -101t147 -34q60 0 124 18.5t108 44.5v176q-44 26 -108 44.5t-124 18.5
q-91 0 -147 -34t-56 -101v-32z" />
    <glyph glyph-name="Dcroat" unicode="&#x110;" horiz-adv-x="1033" 
d="M-35 373h110v327h423q242 0 363.5 -78t121.5 -257v-30q0 -179 -121.5 -257t-363.5 -78h-423v328h-110v45zM642 328h-409v-186h265q75 0 128.5 7t103 26.5t75 59.5t25.5 100v30q0 60 -25.5 100t-75 59.5t-103 26.5t-128.5 7h-265v-185h409v-45z" />
    <glyph glyph-name="dcroat" unicode="&#x111;" horiz-adv-x="850" 
d="M621 0v118q-46 -56 -122 -93.5t-169 -37.5q-126 0 -205.5 75t-79.5 198v32q0 123 79.5 198t205.5 75q93 0 169 -37.5t122 -93.5v216h-727v50h727v62h149v-62h80v-50h-80v-650h-149zM186 260q0 -67 56 -101t147 -34q60 0 124 18.5t108 44.5v176q-44 26 -108 44.5
t-124 18.5q-91 0 -147 -34t-56 -101v-32z" />
    <glyph glyph-name="Emacron" unicode="&#x112;" horiz-adv-x="921" 
d="M249 800h766v-50h-766v50zM75 0v700h791v-142h-633v-133h469v-139h-469v-144h633v-142h-791z" />
    <glyph glyph-name="emacron" unicode="&#x113;" horiz-adv-x="762" 
d="M178 700h766v-50h-766v50zM399 565q157 0 245 -71t88 -207v-49h-544q15 -108 213 -108h233l-128 -130h-100q-182 0 -271.5 62t-89.5 198v22q0 136 95.5 209.5t258.5 73.5zM396 439q-159 0 -199 -97h371q-22 97 -172 97z" />
    <glyph glyph-name="Ebreve" unicode="&#x114;" horiz-adv-x="921" 
d="M580 750h-220q-65 0 -93 29.5t-28 86.5h52q0 -21 3 -33.5t19 -22.5t47 -10h220q44 0 56.5 16.5t12.5 49.5v143h52v-143q0 -57 -28 -86.5t-93 -29.5zM75 0v700h791v-142h-633v-133h469v-139h-469v-144h633v-142h-791z" />
    <glyph glyph-name="ebreve" unicode="&#x115;" horiz-adv-x="762" 
d="M509 650h-220q-65 0 -93 29.5t-28 86.5h52q0 -21 3 -33.5t19 -22.5t47 -10h220q44 0 56.5 16.5t12.5 49.5v143h52v-143q0 -57 -28 -86.5t-93 -29.5zM399 565q157 0 245 -71t88 -207v-49h-544q15 -108 213 -108h233l-128 -130h-100q-182 0 -271.5 62t-89.5 198v22
q0 136 95.5 209.5t258.5 73.5zM396 439q-159 0 -199 -97h371q-22 97 -172 97z" />
    <glyph glyph-name="Edotaccent" unicode="&#x116;" horiz-adv-x="921" 
d="M445 749v206h50v-206h-50zM75 0v700h791v-142h-633v-133h469v-139h-469v-144h633v-142h-791z" />
    <glyph glyph-name="edotaccent" unicode="&#x117;" horiz-adv-x="762" 
d="M374 599v206h50v-206h-50zM399 565q157 0 245 -71t88 -207v-49h-544q15 -108 213 -108h233l-128 -130h-100q-182 0 -271.5 62t-89.5 198v22q0 136 95.5 209.5t258.5 73.5zM396 439q-159 0 -199 -97h371q-22 97 -172 97z" />
    <glyph glyph-name="Eogonek" unicode="&#x118;" horiz-adv-x="921" 
d="M702 286h-469v-144h633v-348h-50v206h-741v700h791v-142h-633v-133h469v-139z" />
    <glyph glyph-name="eogonek" unicode="&#x119;" horiz-adv-x="762" 
d="M399 565q157 0 245 -71t88 -207v-49h-544q15 -108 213 -108h233l-351 -356l-32 32l192 194h-37q-182 0 -271.5 62t-89.5 198v22q0 136 95.5 209.5t258.5 73.5zM396 439q-159 0 -199 -97h371q-22 97 -172 97z" />
    <glyph glyph-name="Ecaron" unicode="&#x11a;" horiz-adv-x="921" 
d="M75 0v700h364l-452 275l24 41l458 -282l216 133l24 -42l-207 -125h364v-142h-633v-133h469v-139h-469v-144h633v-142h-791z" />
    <glyph glyph-name="ecaron" unicode="&#x11b;" horiz-adv-x="762" 
d="M638 675l-186 -112q133 -11 206.5 -81.5t73.5 -194.5v-49h-544q15 -108 213 -108h233l-128 -130h-100q-182 0 -271.5 62t-89.5 198v22q0 124 80.5 197t221.5 84l-431 262l24 41l458 -282l216 133zM396 439q-159 0 -199 -97h371q-22 97 -172 97z" />
    <glyph glyph-name="Gcircumflex" unicode="&#x11c;" horiz-adv-x="1116" 
d="M773 780l-216 133l-458 -282l-24 41l483 294l239 -144zM558 126q317 0 351 160h-531v139h688v-97q0 -341 -508 -341t-508 341v51q0 341 508 341q413 0 490 -224h-178q-79 85 -312 85q-355 0 -355 -202v-51q0 -202 355 -202z" />
    <glyph glyph-name="gcircumflex" unicode="&#x11d;" horiz-adv-x="830" 
d="M630 680l-216 133l-458 -282l-24 41l483 294l239 -144zM750 69q0 -145 -99.5 -210t-293.5 -65h-221l-124 128h349q111 0 175.5 37t64.5 110v48q-45 -56 -117 -93t-164 -37q-118 0 -196.5 76.5t-78.5 196.5v32q0 120 78.5 196.5t196.5 76.5q92 0 164 -37t117 -93v115h149
v-481zM186 260q0 -64 55.5 -99.5t137.5 -35.5q59 0 119.5 18t102.5 45v176q-42 27 -102.5 45t-119.5 18q-82 0 -137.5 -35.5t-55.5 -99.5v-32z" />
    <glyph glyph-name="Gbreve" unicode="&#x11e;" horiz-adv-x="1116" 
d="M668 750h-220q-65 0 -93 29.5t-28 86.5h52q0 -21 3 -33.5t19 -22.5t47 -10h220q44 0 56.5 16.5t12.5 49.5v143h52v-143q0 -57 -28 -86.5t-93 -29.5zM558 126q317 0 351 160h-531v139h688v-97q0 -341 -508 -341t-508 341v51q0 341 508 341q413 0 490 -224h-178
q-79 85 -312 85q-355 0 -355 -202v-51q0 -202 355 -202z" />
    <glyph glyph-name="gbreve" unicode="&#x11f;" horiz-adv-x="830" 
d="M525 650h-220q-65 0 -93 29.5t-28 86.5h52q0 -21 3 -33.5t19 -22.5t47 -10h220q44 0 56.5 16.5t12.5 49.5v143h52v-143q0 -57 -28 -86.5t-93 -29.5zM750 69q0 -145 -99.5 -210t-293.5 -65h-221l-124 128h349q111 0 175.5 37t64.5 110v48q-45 -56 -117 -93t-164 -37
q-118 0 -196.5 76.5t-78.5 196.5v32q0 120 78.5 196.5t196.5 76.5q92 0 164 -37t117 -93v115h149v-481zM186 260q0 -64 55.5 -99.5t137.5 -35.5q59 0 119.5 18t102.5 45v176q-42 27 -102.5 45t-119.5 18q-82 0 -137.5 -35.5t-55.5 -99.5v-32z" />
    <glyph glyph-name="Gdotaccent" unicode="&#x120;" horiz-adv-x="1116" 
d="M533 749v206h50v-206h-50zM558 126q317 0 351 160h-531v139h688v-97q0 -341 -508 -341t-508 341v51q0 341 508 341q413 0 490 -224h-178q-79 85 -312 85q-355 0 -355 -202v-51q0 -202 355 -202z" />
    <glyph glyph-name="gdotaccent" unicode="&#x121;" horiz-adv-x="830" 
d="M390 599v206h50v-206h-50zM750 69q0 -145 -99.5 -210t-293.5 -65h-221l-124 128h349q111 0 175.5 37t64.5 110v48q-45 -56 -117 -93t-164 -37q-118 0 -196.5 76.5t-78.5 196.5v32q0 120 78.5 196.5t196.5 76.5q92 0 164 -37t117 -93v115h149v-481zM186 260
q0 -64 55.5 -99.5t137.5 -35.5q59 0 119.5 18t102.5 45v176q-42 27 -102.5 45t-119.5 18q-82 0 -137.5 -35.5t-55.5 -99.5v-32z" />
    <glyph glyph-name="Gcommaaccent" unicode="&#x122;" horiz-adv-x="1116" 
d="M558 126q317 0 351 160h-531v139h688v-97q0 -341 -508 -341t-508 341v51q0 341 508 341q413 0 490 -224h-178q-79 85 -312 85q-355 0 -355 -202v-51q0 -202 355 -202zM446 -206l249 155h87l-249 -155h-87z" />
    <glyph glyph-name="gcommaaccent" unicode="&#x123;" horiz-adv-x="830" 
d="M239 601l441 274h87l-441 -274h-87zM750 69q0 -145 -99.5 -210t-293.5 -65h-221l-124 128h349q111 0 175.5 37t64.5 110v48q-45 -56 -117 -93t-164 -37q-118 0 -196.5 76.5t-78.5 196.5v32q0 120 78.5 196.5t196.5 76.5q92 0 164 -37t117 -93v115h149v-481zM186 260
q0 -64 55.5 -99.5t137.5 -35.5q59 0 119.5 18t102.5 45v176q-42 27 -102.5 45t-119.5 18q-82 0 -137.5 -35.5t-55.5 -99.5v-32z" />
    <glyph glyph-name="Hcircumflex" unicode="&#x124;" horiz-adv-x="1105" 
d="M872 0v283h-639v-283h-158v669l-62 -38l-24 41l483 294l239 -144l-24 -42l-216 133l-346 -213h108v-272h639v272h158v-700h-158z" />
    <glyph glyph-name="hcircumflex" unicode="&#x125;" horiz-adv-x="824" 
d="M458 427q-57 0 -124.5 -19t-104.5 -48v-360h-149v759l-127 -78l-24 41l483 294l239 -144l-24 -42l-216 133l-326 -201h144v-331q42 59 114.5 96.5t157.5 37.5q122 0 190 -71t68 -194v-300h-149v270q0 89 -33.5 123t-118.5 34z" />
    <glyph glyph-name="Hbar" unicode="&#x126;" horiz-adv-x="1145" 
d="M892 0v283h-639v-283h-158v541h-110v45h110v114h158v-114h639v114h158v-114h110v-45h-110v-541h-158zM253 428h639v113h-639v-113z" />
    <glyph glyph-name="hbar" unicode="&#x127;" horiz-adv-x="824" 
d="M458 427q-57 0 -124.5 -19t-104.5 -48v-360h-149v650h-80v50h80v62h149v-62h727v-50h-727v-219q42 59 114.5 96.5t157.5 37.5q122 0 190 -71t68 -194v-300h-149v270q0 89 -33.5 123t-118.5 34z" />
    <glyph glyph-name="Itilde" unicode="&#x128;" horiz-adv-x="822" 
d="M284 778l-147 -78h625v-142h-272v-416h272v-142h-702v142h272v416h-272v101l-48 -25l-23 43l298 158l79 -57l349 187l23 -43l-375 -201z" />
    <glyph glyph-name="itilde" unicode="&#x129;" horiz-adv-x="309" 
d="M506 865l23 -43l-375 -201l-79 57l-272 -144l-23 43l298 158l79 -57zM80 550h149v-550h-149v550z" />
    <glyph glyph-name="Imacron" unicode="&#x12a;" horiz-adv-x="822" 
d="M190 800h766v-50h-766v50zM60 558v142h702v-142h-272v-416h272v-142h-702v142h272v416h-272z" />
    <glyph glyph-name="imacron" unicode="&#x12b;" horiz-adv-x="309" 
d="M-67 700h766v-50h-766v50zM80 550h149v-550h-149v550z" />
    <glyph glyph-name="Ibreve" unicode="&#x12c;" horiz-adv-x="822" 
d="M521 750h-220q-65 0 -93 29.5t-28 86.5h52q0 -21 3 -33.5t19 -22.5t47 -10h220q44 0 56.5 16.5t12.5 49.5v143h52v-143q0 -57 -28 -86.5t-93 -29.5zM60 558v142h702v-142h-272v-416h272v-142h-702v142h272v416h-272z" />
    <glyph glyph-name="ibreve" unicode="&#x12d;" horiz-adv-x="309" 
d="M264 650h-220q-65 0 -93 29.5t-28 86.5h52q0 -21 3 -33.5t19 -22.5t47 -10h220q44 0 56.5 16.5t12.5 49.5v143h52v-143q0 -57 -28 -86.5t-93 -29.5zM80 550h149v-550h-149v550z" />
    <glyph glyph-name="Iogonek" unicode="&#x12e;" horiz-adv-x="822" 
d="M60 558v142h702v-142h-272v-416h272v-348h-50v206h-652v142h272v416h-272z" />
    <glyph glyph-name="iogonek" unicode="&#x12f;" horiz-adv-x="309" 
d="M80 762h362v-123h-362v123zM179 -206v206h-99v550h149v-756h-50z" />
    <glyph glyph-name="Idotaccent" unicode="&#x130;" horiz-adv-x="822" 
d="M386 749v206h50v-206h-50zM60 558v142h702v-142h-272v-416h272v-142h-702v142h272v416h-272z" />
    <glyph glyph-name="dotlessi" unicode="&#x131;" horiz-adv-x="309" 
d="M80 550h149v-550h-149v550z" />
    <glyph glyph-name="Jcircumflex" unicode="&#x134;" horiz-adv-x="1007" 
d="M858 780l-216 133l-458 -282l-24 41l483 294l239 -144zM347 558v142h592v-356q-3 -357 -467 -357q-417 0 -462 293h159q13 -49 44 -81t77.5 -46t87.5 -19t95 -5q39 0 70.5 2.5t69.5 9.5t66 22t52 37.5t37 58.5t13 83v216h-434z" />
    <glyph glyph-name="jcircumflex" unicode="&#x135;" horiz-adv-x="544" 
d="M604 680l-216 133l-458 -282l-24 41l483 294l239 -144zM15 420v130h449v-483q0 -145 -88 -209t-261 -64v133q95 0 147.5 37.5t52.5 102.5v353h-300z" />
    <glyph glyph-name="Kcommaaccent" unicode="&#x136;" horiz-adv-x="1017" 
d="M698 0l-245 367l-220 -123v-244h-158v700h158v-297l530 297h284l-460 -258l295 -442h-184zM254 -206l249 155h87l-249 -155h-87z" />
    <glyph glyph-name="kcommaaccent" unicode="&#x137;" horiz-adv-x="804" 
d="M540 0l-176 290l-135 -68v-222h-149v762h149v-395l365 183h288l-390 -196l216 -354h-168zM172 -206l249 155h87l-249 -155h-87z" />
    <glyph glyph-name="Lacute" unicode="&#x139;" horiz-adv-x="841" 
d="M849 965l12 -45l-1049 -287l-12 45zM796 142v-142h-721v700h158v-558h563z" />
    <glyph glyph-name="lacute" unicode="&#x13a;" horiz-adv-x="309" 
d="M849 1077l12 -45l-1049 -287l-12 45zM80 762h149v-762h-149v762z" />
    <glyph glyph-name="Lcommaaccent" unicode="&#x13b;" horiz-adv-x="841" 
d="M796 142v-142h-721v700h158v-558h563zM224 -206l249 155h87l-249 -155h-87z" />
    <glyph glyph-name="lcommaaccent" unicode="&#x13c;" horiz-adv-x="309" 
d="M80 762h149v-762h-149v762zM-58 -206l249 155h87l-249 -155h-87z" />
    <glyph glyph-name="Lcaron" unicode="&#x13d;" horiz-adv-x="841" 
d="M796 142v-142h-721v700h158v-558h563zM333 494v206h50v-206h-50z" />
    <glyph glyph-name="lcaron" unicode="&#x13e;" horiz-adv-x="309" 
d="M80 762h149v-762h-149v762zM279 556v206h50v-206h-50z" />
    <glyph glyph-name="Ldot" unicode="&#x13f;" horiz-adv-x="841" 
d="M796 142v-142h-721v700h158v-558h563zM542 332v206h50v-206h-50z" />
    <glyph glyph-name="ldot" unicode="&#x140;" horiz-adv-x="359" 
d="M80 762h149v-762h-149v762zM309 332v206h50v-206h-50z" />
    <glyph glyph-name="Lslash" unicode="&#x141;" horiz-adv-x="841" 
d="M796 142v-142h-721v95l-207 -301h-58l265 385v521h158v-292l201 292h58l-259 -376v-182h563z" />
    <glyph glyph-name="lslash" unicode="&#x142;" horiz-adv-x="309" 
d="M80 0v232l-302 -438h-58l360 523v445h149v-229l115 167h58l-173 -251v-449h-149z" />
    <glyph glyph-name="Nacute" unicode="&#x143;" horiz-adv-x="1065" 
d="M990 700v-700h-162l-595 511v-511h-158v700h133l969 265l12 -45l-916 -251l559 -481v512h158z" />
    <glyph glyph-name="nacute" unicode="&#x144;" horiz-adv-x="824" 
d="M458 427q-57 0 -124.5 -19t-104.5 -48v-360h-149v548l-53 -15l-12 45l1049 287l12 -45l-987 -270h140v-119q42 59 114.5 96.5t157.5 37.5q122 0 190 -71t68 -194v-300h-149v270q0 89 -33.5 123t-118.5 34z" />
    <glyph glyph-name="Ncommaaccent" unicode="&#x145;" horiz-adv-x="1065" 
d="M990 700v-700h-162l-595 511v-511h-158v700h162l595 -512v512h158zM320 -206l249 155h87l-249 -155h-87z" />
    <glyph glyph-name="ncommaaccent" unicode="&#x146;" horiz-adv-x="824" 
d="M458 427q-57 0 -124.5 -19t-104.5 -48v-360h-149v550h149v-119q42 59 114.5 96.5t157.5 37.5q122 0 190 -71t68 -194v-300h-149v270q0 89 -33.5 123t-118.5 34zM207 -206l249 155h87l-249 -155h-87z" />
    <glyph glyph-name="Ncaron" unicode="&#x147;" horiz-adv-x="1065" 
d="M771 825l-239 -144l-483 294l24 41l458 -282l216 133zM990 700v-700h-162l-595 511v-511h-158v700h162l595 -512v512h158z" />
    <glyph glyph-name="ncaron" unicode="&#x148;" horiz-adv-x="824" 
d="M458 427q-57 0 -124.5 -19t-104.5 -48v-360h-149v550h149v-119q58 81 163 116l-456 278l24 41l458 -282l216 133l24 -42l-184 -111q9 1 27 1q122 0 190 -71t68 -194v-300h-149v270q0 89 -33.5 123t-118.5 34z" />
    <glyph glyph-name="Eng" unicode="&#x14a;" horiz-adv-x="1065" 
d="M832 700h158v-700l-158 -226v226h-4l-595 511v-511h-158v700h162l595 -512v512z" />
    <glyph glyph-name="eng" unicode="&#x14b;" horiz-adv-x="824" 
d="M501 565q122 0 190 -71t68 -194v-313l-149 -213v496q0 89 -33.5 123t-118.5 34q-57 0 -124.5 -19t-104.5 -48v-360h-149v550h149v-119q42 59 114.5 96.5t157.5 37.5z" />
    <glyph glyph-name="Omacron" unicode="&#x14c;" horiz-adv-x="1116" 
d="M337 800h766v-50h-766v50zM50 379q0 341 508 341t508 -341v-51q0 -341 -508 -341t-508 341v51zM913 379q0 202 -355 202t-355 -202v-51q0 -202 355 -202t355 202v51z" />
    <glyph glyph-name="omacron" unicode="&#x14d;" horiz-adv-x="842" 
d="M200 700h766v-50h-766v50zM797 260q0 -134 -99.5 -203.5t-276.5 -69.5t-276.5 69.5t-99.5 203.5v32q0 134 99.5 203.5t276.5 69.5t276.5 -69.5t99.5 -203.5v-32zM656 260v32q0 69 -63 104.5t-172 35.5t-172 -35.5t-63 -104.5v-32q0 -69 63 -104.5t172 -35.5t172 35.5
t63 104.5z" />
    <glyph glyph-name="Obreve" unicode="&#x14e;" horiz-adv-x="1116" 
d="M668 750h-220q-65 0 -93 29.5t-28 86.5h52q0 -21 3 -33.5t19 -22.5t47 -10h220q44 0 56.5 16.5t12.5 49.5v143h52v-143q0 -57 -28 -86.5t-93 -29.5zM50 379q0 341 508 341t508 -341v-51q0 -341 -508 -341t-508 341v51zM913 379q0 202 -355 202t-355 -202v-51
q0 -202 355 -202t355 202v51z" />
    <glyph glyph-name="obreve" unicode="&#x14f;" horiz-adv-x="842" 
d="M531 650h-220q-65 0 -93 29.5t-28 86.5h52q0 -21 3 -33.5t19 -22.5t47 -10h220q44 0 56.5 16.5t12.5 49.5v143h52v-143q0 -57 -28 -86.5t-93 -29.5zM797 260q0 -134 -99.5 -203.5t-276.5 -69.5t-276.5 69.5t-99.5 203.5v32q0 134 99.5 203.5t276.5 69.5t276.5 -69.5
t99.5 -203.5v-32zM656 260v32q0 69 -63 104.5t-172 35.5t-172 -35.5t-63 -104.5v-32q0 -69 63 -104.5t172 -35.5t172 35.5t63 104.5z" />
    <glyph glyph-name="Ohungarumlaut" unicode="&#x150;" horiz-adv-x="1116" 
d="M1019 965l12 -45l-1049 -287l-12 45zM1019 867l12 -45l-248 -68l-12 45zM50 379q0 341 508 341t508 -341v-51q0 -341 -508 -341t-508 341v51zM913 379q0 202 -355 202t-355 -202v-51q0 -202 355 -202t355 202v51z" />
    <glyph glyph-name="ohungarumlaut" unicode="&#x151;" horiz-adv-x="842" 
d="M1116 865l12 -45l-1049 -287l-12 45zM1116 767l12 -45l-527 -145l-12 45zM797 260q0 -134 -99.5 -203.5t-276.5 -69.5t-276.5 69.5t-99.5 203.5v32q0 134 99.5 203.5t276.5 69.5t276.5 -69.5t99.5 -203.5v-32zM656 260v32q0 69 -63 104.5t-172 35.5t-172 -35.5
t-63 -104.5v-32q0 -69 63 -104.5t172 -35.5t172 35.5t63 104.5z" />
    <glyph glyph-name="OE" unicode="&#x152;" horiz-adv-x="1754" 
d="M1699 142v-142h-791v53q-125 -66 -350 -66q-508 0 -508 341v51q0 341 508 341q225 0 350 -66v46h791v-142h-633v-133h469v-139h-469v-144h633zM203 328q0 -202 355 -202q313 0 350 156v143q-37 156 -350 156q-355 0 -355 -202v-51z" />
    <glyph glyph-name="oe" unicode="&#x153;" horiz-adv-x="1373" 
d="M1010 565q157 0 245 -71t88 -207v-49h-544q15 -108 213 -108h233l-128 -130h-100q-207 0 -292 79q-98 -92 -304 -92q-177 0 -276.5 69.5t-99.5 203.5v32q0 134 99.5 203.5t276.5 69.5q210 0 307 -95q93 95 282 95zM1007 439q-159 0 -199 -97h371q-22 97 -172 97zM656 260
v32q0 69 -63 104.5t-172 35.5t-172 -35.5t-63 -104.5v-32q0 -69 63 -104.5t172 -35.5t172 35.5t63 104.5z" />
    <glyph glyph-name="Racute" unicode="&#x154;" horiz-adv-x="1151" 
d="M75 0v700h201l969 265l12 -45l-804 -220h325q115 0 181 -55t66 -151q0 -99 -62.5 -145.5t-184.5 -56.5l-185 -17l598 -275h-316l-546 252l-96 -9v-243h-158zM788 558h-555v-182l555 50q81 7 81 68q0 64 -81 64z" />
    <glyph glyph-name="racute" unicode="&#x155;" horiz-adv-x="546" 
d="M963 865l12 -45l-1049 -287l-12 45zM412 394q-128 0 -183 -56v-338h-149v550h149v-130q22 48 66 87.5t102 50.5l159 -164h-144z" />
    <glyph glyph-name="Rcommaaccent" unicode="&#x156;" horiz-adv-x="1151" 
d="M75 0v700h703q115 0 181 -55t66 -151q0 -99 -62.5 -145.5t-184.5 -56.5l-185 -17l598 -275h-316l-546 252l-96 -9v-243h-158zM788 558h-555v-182l555 50q81 7 81 68q0 64 -81 64zM338 -206l249 155h87l-249 -155h-87z" />
    <glyph glyph-name="rcommaaccent" unicode="&#x157;" horiz-adv-x="546" 
d="M412 394q-128 0 -183 -56v-338h-149v550h149v-130q22 48 66 87.5t102 50.5l159 -164h-144zM-58 -206l249 155h87l-249 -155h-87z" />
    <glyph glyph-name="Rcaron" unicode="&#x158;" horiz-adv-x="1151" 
d="M75 0v700h444l-452 275l24 41l458 -282l216 133l24 -42l-207 -125h196q115 0 181 -55t66 -151q0 -99 -62.5 -145.5t-184.5 -56.5l-185 -17l598 -275h-316l-546 252l-96 -9v-243h-158zM788 558h-555v-182l555 50q81 7 81 68q0 64 -81 64z" />
    <glyph glyph-name="rcaron" unicode="&#x159;" horiz-adv-x="546" 
d="M507 675l-239 -144l-483 294l24 41l458 -282l216 133zM412 394q-128 0 -183 -56v-338h-149v550h149v-130q22 48 66 87.5t102 50.5l159 -164h-144z" />
    <glyph glyph-name="Sacute" unicode="&#x15a;" horiz-adv-x="969" 
d="M856 965l12 -45l-1049 -287l-12 45zM337 324q-126 19 -199 68.5t-73 127.5v27q0 83 54 118t162 35h303l141 -142h-511q0 -40 50.5 -64t154.5 -40l302 -46q218 -33 218 -177v-43q0 -98 -107.5 -149.5t-311.5 -51.5q-138 0 -242.5 29.5t-170.5 97t-69 166.5h154
q28 -151 327 -151q266 1 266 70v14q0 26 -24 38t-80 21z" />
    <glyph glyph-name="sacute" unicode="&#x15b;" horiz-adv-x="719" 
d="M1034 865l12 -45l-1049 -287l-12 45zM388 -13q-100 0 -176 21t-125 72t-50 127h145q7 -47 64 -72t142 -25q73 0 111.5 16t38.5 37v6q0 20 -40 28q-13 3 -54 9l-187 29q-101 16 -148.5 50t-47.5 105v9q0 166 278 166q136 0 218.5 -48t92.5 -137h-146q-13 32 -61.5 47.5
t-113.5 15.5q-127 0 -127 -39v-6q0 -16 24 -24t73 -16l211 -33q83 -13 125.5 -47t42.5 -96v-15q0 -180 -290 -180z" />
    <glyph glyph-name="Scircumflex" unicode="&#x15c;" horiz-adv-x="969" 
d="M637 780l-216 133l-458 -282l-24 41l483 294l239 -144zM337 324q-126 19 -199 68.5t-73 127.5v27q0 83 54 118t162 35h303l141 -142h-511q0 -40 50.5 -64t154.5 -40l302 -46q218 -33 218 -177v-43q0 -98 -107.5 -149.5t-311.5 -51.5q-138 0 -242.5 29.5t-170.5 97
t-69 166.5h154q28 -151 327 -151q266 1 266 70v14q0 26 -24 38t-80 21z" />
    <glyph glyph-name="scircumflex" unicode="&#x15d;" horiz-adv-x="719" 
d="M554 680l-216 133l-458 -282l-24 41l483 294l239 -144zM388 -13q-100 0 -176 21t-125 72t-50 127h145q7 -47 64 -72t142 -25q73 0 111.5 16t38.5 37v6q0 20 -40 28q-13 3 -54 9l-187 29q-101 16 -148.5 50t-47.5 105v9q0 166 278 166q136 0 218.5 -48t92.5 -137h-146
q-13 32 -61.5 47.5t-113.5 15.5q-127 0 -127 -39v-6q0 -16 24 -24t73 -16l211 -33q83 -13 125.5 -47t42.5 -96v-15q0 -180 -290 -180z" />
    <glyph glyph-name="Scedilla" unicode="&#x15e;" horiz-adv-x="969" 
d="M337 324q-126 19 -199 68.5t-73 127.5v27q0 83 54 118t162 35h303l141 -142h-511q0 -40 50.5 -64t154.5 -40l302 -46q218 -33 218 -177v-43q0 -98 -107.5 -149.5t-311.5 -51.5q-138 0 -242.5 29.5t-170.5 97t-69 166.5h154q28 -151 327 -151q266 1 266 70v14q0 26 -24 38
t-80 21zM430 -194l146 146l34 -34l-146 -145z" />
    <glyph glyph-name="scedilla" unicode="&#x15f;" horiz-adv-x="719" 
d="M388 -13q-100 0 -176 21t-125 72t-50 127h145q7 -47 64 -72t142 -25q73 0 111.5 16t38.5 37v6q0 20 -40 28q-13 3 -54 9l-187 29q-101 16 -148.5 50t-47.5 105v9q0 166 278 166q136 0 218.5 -48t92.5 -137h-146q-13 32 -61.5 47.5t-113.5 15.5q-127 0 -127 -39v-6
q0 -16 24 -24t73 -16l211 -33q83 -13 125.5 -47t42.5 -96v-15q0 -180 -290 -180zM298 -194l146 146l34 -34l-146 -145z" />
    <glyph glyph-name="Scaron" unicode="&#x160;" horiz-adv-x="969" 
d="M939 188q0 -98 -107.5 -149.5t-311.5 -51.5q-138 0 -242.5 29.5t-170.5 97t-69 166.5h154q28 -151 327 -151q266 1 266 70v14q0 26 -24 38t-80 21l-344 52q-126 19 -199 68.5t-73 127.5v27q0 83 54 118t162 35h110l-452 275l24 41l458 -282l216 133l24 -42l-207 -125h130
l141 -142h-511q0 -40 50.5 -64t154.5 -40l302 -46q218 -33 218 -177v-43z" />
    <glyph glyph-name="scaron" unicode="&#x161;" horiz-adv-x="719" 
d="M678 167q0 -180 -290 -180q-100 0 -176 21t-125 72t-50 127h145q7 -47 64 -72t142 -25q73 0 111.5 16t38.5 37v6q0 20 -40 28q-13 3 -54 9l-187 29q-101 16 -148.5 50t-47.5 105v9q0 148 225 164l-430 262l24 41l458 -282l216 133l24 -42l-186 -112q113 -9 180.5 -56
t77.5 -127h-146q-13 32 -61.5 47.5t-113.5 15.5q-127 0 -127 -39v-6q0 -16 24 -24t73 -16l211 -33q83 -13 125.5 -47t42.5 -96v-15z" />
    <glyph glyph-name="uni0162" unicode="&#x162;" horiz-adv-x="992" 
d="M35 558v142h922v-142h-382v-558h-158v558h-382zM284 -206l249 155h87l-249 -155h-87z" />
    <glyph glyph-name="uni0163" unicode="&#x163;" horiz-adv-x="626" 
d="M613 420h-316v-220l303 -200h-254l-198 131v289h-125v130h125v150h149v-150h190zM261 -206l249 155h87l-249 -155h-87z" />
    <glyph glyph-name="Tcaron" unicode="&#x164;" horiz-adv-x="992" 
d="M735 825l-207 -125h429v-142h-382v-558h-158v558h-382v142h430l-452 275l24 41l458 -282l216 133z" />
    <glyph glyph-name="tcaron" unicode="&#x165;" horiz-adv-x="626" 
d="M347 586v206h50v-206h-50zM613 420h-316v-220l303 -200h-254l-198 131v289h-125v130h125v150h149v-150h190z" />
    <glyph glyph-name="Tbar" unicode="&#x166;" horiz-adv-x="992" 
d="M35 558v142h922v-142h-382v-186h422v-45h-422v-327h-158v327h-422v45h422v186h-382z" />
    <glyph glyph-name="tbar" unicode="&#x167;" horiz-adv-x="626" 
d="M939 285h-642v-85l303 -200h-254l-198 131v154h-125v50h125v85h-125v130h125v150h149v-150h190l126 -130h-316v-85h642v-50z" />
    <glyph glyph-name="Utilde" unicode="&#x168;" horiz-adv-x="1070" 
d="M1002 344q0 -357 -467 -357t-467 357v356h136l255 135l79 -57l349 187l23 -43l-375 -201l-79 57l-230 -122v-314q0 -56 20 -96.5t49 -63t73 -36t82 -17t86 -3.5q47 0 85 3.5t82 17t73 36t48.5 63t19.5 96.5v358h158v-356z" />
    <glyph glyph-name="utilde" unicode="&#x169;" horiz-adv-x="804" 
d="M575 0v121q-43 -56 -111.5 -95t-144.5 -39q-119 0 -186.5 71.5t-67.5 193.5v294l-22 -12l-23 43l298 158l79 -57l349 187l23 -43l-375 -201l-79 57l-242 -128h141v-268q0 -89 33.5 -123t118.5 -34q106 0 209 65v360h149v-550h-149z" />
    <glyph glyph-name="Umacron" unicode="&#x16a;" horiz-adv-x="1070" 
d="M314 800h766v-50h-766v50zM226 342q0 -56 20 -96.5t49 -63t73 -36t82 -17t86 -3.5q47 0 85 3.5t82 17t73 36t48.5 63t19.5 96.5v358h158v-356q0 -357 -467 -357t-467 357v356h158v-358z" />
    <glyph glyph-name="umacron" unicode="&#x16b;" horiz-adv-x="804" 
d="M173 700h766v-50h-766v50zM575 0v121q-43 -56 -111.5 -95t-144.5 -39q-119 0 -186.5 71.5t-67.5 193.5v298h149v-268q0 -89 33.5 -123t118.5 -34q106 0 209 65v360h149v-550h-149z" />
    <glyph glyph-name="Ubreve" unicode="&#x16c;" horiz-adv-x="1070" 
d="M645 750h-220q-65 0 -93 29.5t-28 86.5h52q0 -21 3 -33.5t19 -22.5t47 -10h220q44 0 56.5 16.5t12.5 49.5v143h52v-143q0 -57 -28 -86.5t-93 -29.5zM226 342q0 -56 20 -96.5t49 -63t73 -36t82 -17t86 -3.5q47 0 85 3.5t82 17t73 36t48.5 63t19.5 96.5v358h158v-356
q0 -357 -467 -357t-467 357v356h158v-358z" />
    <glyph glyph-name="ubreve" unicode="&#x16d;" horiz-adv-x="804" 
d="M504 650h-220q-65 0 -93 29.5t-28 86.5h52q0 -21 3 -33.5t19 -22.5t47 -10h220q44 0 56.5 16.5t12.5 49.5v143h52v-143q0 -57 -28 -86.5t-93 -29.5zM575 0v121q-43 -56 -111.5 -95t-144.5 -39q-119 0 -186.5 71.5t-67.5 193.5v298h149v-268q0 -89 33.5 -123t118.5 -34
q106 0 209 65v360h149v-550h-149z" />
    <glyph glyph-name="Uring" unicode="&#x16e;" horiz-adv-x="1070" 
d="M780 669q0 -101 -72 -172.5t-173 -71.5t-172.5 71.5t-71.5 172.5t71.5 173t172.5 72t173 -72t72 -173zM336 669q0 -83 58 -141t141 -58t141.5 58t58.5 141t-58.5 141.5t-141.5 58.5t-141 -58.5t-58 -141.5zM226 342q0 -56 20 -96.5t49 -63t73 -36t82 -17t86 -3.5
q47 0 85 3.5t82 17t73 36t48.5 63t19.5 96.5v358h158v-356q0 -357 -467 -357t-467 357v356h158v-358z" />
    <glyph glyph-name="uring" unicode="&#x16f;" horiz-adv-x="804" 
d="M639 749q0 -101 -72 -172.5t-173 -71.5q-100 0 -172 71.5t-72 172.5t71.5 173t172.5 72t173 -72t72 -173zM195 749q0 -83 58.5 -141t140.5 -58q83 0 141.5 58t58.5 141t-58.5 141.5t-141.5 58.5t-141 -58.5t-58 -141.5zM575 0v121q-43 -56 -111.5 -95t-144.5 -39
q-119 0 -186.5 71.5t-67.5 193.5v298h149v-268q0 -89 33.5 -123t118.5 -34q106 0 209 65v360h149v-550h-149z" />
    <glyph glyph-name="Uhungarumlaut" unicode="&#x170;" horiz-adv-x="1070" 
d="M1002 344q0 -357 -467 -357t-467 357v356h123l969 265l12 -45l-946 -259v-319q0 -56 20 -96.5t49 -63t73 -36t82 -17t86 -3.5q47 0 85 3.5t82 17t73 36t48.5 63t19.5 96.5v358h158v-356zM1160 867l12 -45l-248 -68l-12 45z" />
    <glyph glyph-name="uhungarumlaut" unicode="&#x171;" horiz-adv-x="804" 
d="M575 0v121q-43 -56 -111.5 -95t-144.5 -39q-119 0 -186.5 71.5t-67.5 193.5v285l-13 -4l-12 45l1049 287l12 -45l-987 -270h100v-268q0 -89 33.5 -123t118.5 -34q106 0 209 65v360h149v-550h-149zM1089 767l12 -45l-527 -145l-12 45z" />
    <glyph glyph-name="Uogonek" unicode="&#x172;" horiz-adv-x="1070" 
d="M1002 344q0 -289 -306 -344v-206h-50v199q-52 -6 -111 -6q-467 0 -467 357v356h158v-358q0 -56 20 -96.5t49 -63t73 -36t82 -17t86 -3.5q47 0 85 3.5t82 17t73 36t48.5 63t19.5 96.5v358h158v-356z" />
    <glyph glyph-name="uogonek" unicode="&#x173;" horiz-adv-x="804" 
d="M674 -206v206h-99v121q-43 -56 -111.5 -95t-144.5 -39q-119 0 -186.5 71.5t-67.5 193.5v298h149v-268q0 -89 33.5 -123t118.5 -34q106 0 209 65v360h149v-756h-50z" />
    <glyph glyph-name="Wcircumflex" unicode="&#x174;" horiz-adv-x="1234" 
d="M773 0l-156 395l-156 -395h-279l-140 700h138l437 266l239 -144l-24 -42l-216 133l-403 -248l120 -601l195 486h178l195 -486l127 636h164l-140 -700h-279z" />
    <glyph glyph-name="wcircumflex" unicode="&#x175;" horiz-adv-x="988" 
d="M605 0l-111 293l-111 -293h-254l-107 550h2l-13 22l483 294l239 -144l-24 -42l-216 133l-427 -263h114l87 -465l227 540l227 -540l87 465h158l-107 -550h-254z" />
    <glyph glyph-name="Ycircumflex" unicode="&#x176;" horiz-adv-x="1028" 
d="M594 295v-295h-158v295l-441 405h191l439 267l239 -144l-24 -42l-216 133l-383 -236l274 -254l296 276h222z" />
    <glyph glyph-name="ycircumflex" unicode="&#x177;" horiz-adv-x="737" 
d="M586 680l-216 133l-458 -282l-24 41l483 294l239 -144zM566 550h171l-398 -756h-171l108 206h-104l-155 550h159l136 -483z" />
    <glyph glyph-name="Ydieresis" unicode="&#x178;" horiz-adv-x="1028" 
d="M387 749v206h52v-206h-52zM599 850h206v-50h-206v50zM594 295v-295h-158v295l-441 405h223l297 -276l296 276h222z" />
    <glyph glyph-name="Zacute" unicode="&#x179;" 
d="M961 142v-142h-846v142l545 416h-635v142h156l969 265l12 -45l-804 -220h527v-142l-545 -416h621z" />
    <glyph glyph-name="zacute" unicode="&#x17a;" horiz-adv-x="718" 
d="M705 0h-591v130l345 290h-421v128l-53 -15l-12 45l1049 287l12 -45l-987 -270h592v-130l-345 -290h411v-130z" />
    <glyph glyph-name="Zdotaccent" unicode="&#x17b;" 
d="M430 749v206h50v-206h-50zM961 142v-142h-846v142l545 416h-635v142h860v-142l-545 -416h621z" />
    <glyph glyph-name="zdotaccent" unicode="&#x17c;" horiz-adv-x="718" 
d="M302 599v206h50v-206h-50zM705 0h-591v130l345 290h-421v130h601v-130l-345 -290h411v-130z" />
    <glyph glyph-name="Zcaron" unicode="&#x17d;" 
d="M961 142v-142h-846v142l545 416h-635v142h399l-452 275l24 41l458 -282l216 133l24 -42l-207 -125h398v-142l-545 -416h621z" />
    <glyph glyph-name="zcaron" unicode="&#x17e;" horiz-adv-x="718" 
d="M705 0h-591v130l345 290h-421v130h258l-452 275l24 41l458 -282l216 133l24 -42l-207 -125h280v-130l-345 -290h411v-130z" />
    <glyph glyph-name="uni018F" unicode="&#x18f;" horiz-adv-x="1116" 
d="M1066 328q0 -341 -508 -341t-508 341v51q0 25 3 47h855q-9 36 -33.5 61.5t-55.5 39.5t-78 22t-87 10t-96 2h-331l134 139h197q257 0 382.5 -72t125.5 -249v-51zM558 126q319 0 351 162h-702q32 -162 351 -162z" />
    <glyph glyph-name="Scommaaccent" unicode="&#x218;" horiz-adv-x="969" 
d="M337 324q-126 19 -199 68.5t-73 127.5v27q0 83 54 118t162 35h303l141 -142h-511q0 -40 50.5 -64t154.5 -40l302 -46q218 -33 218 -177v-43q0 -98 -107.5 -149.5t-311.5 -51.5q-138 0 -242.5 29.5t-170.5 97t-69 166.5h154q28 -151 327 -151q266 1 266 70v14q0 26 -24 38
t-80 21zM308 -206l249 155h87l-249 -155h-87z" />
    <glyph glyph-name="scommaaccent" unicode="&#x219;" horiz-adv-x="719" 
d="M388 -13q-100 0 -176 21t-125 72t-50 127h145q7 -47 64 -72t142 -25q73 0 111.5 16t38.5 37v6q0 20 -40 28q-13 3 -54 9l-187 29q-101 16 -148.5 50t-47.5 105v9q0 166 278 166q136 0 218.5 -48t92.5 -137h-146q-13 32 -61.5 47.5t-113.5 15.5q-127 0 -127 -39v-6
q0 -16 24 -24t73 -16l211 -33q83 -13 125.5 -47t42.5 -96v-15q0 -180 -290 -180zM176 -206l249 155h87l-249 -155h-87z" />
    <glyph glyph-name="Tcommaaccent" unicode="&#x21a;" horiz-adv-x="992" 
d="M35 558v142h922v-142h-382v-558h-158v558h-382zM284 -206l249 155h87l-249 -155h-87z" />
    <glyph glyph-name="tcommaaccent" unicode="&#x21b;" horiz-adv-x="626" 
d="M613 420h-316v-220l303 -200h-254l-198 131v289h-125v130h125v150h149v-150h190zM261 -206l249 155h87l-249 -155h-87z" />
    <glyph glyph-name="uni0232" unicode="&#x232;" horiz-adv-x="1028" 
d="M294 800h766v-50h-766v50zM594 295v-295h-158v295l-441 405h223l297 -276l296 276h222z" />
    <glyph glyph-name="uni0233" unicode="&#x233;" horiz-adv-x="737" 
d="M150 700h766v-50h-766v50zM566 550h171l-398 -756h-171l108 206h-104l-155 550h159l136 -483z" />
    <glyph glyph-name="dotlessj" unicode="&#x237;" horiz-adv-x="544" 
d="M15 420v130h449v-483q0 -145 -88 -209t-261 -64v133q95 0 147.5 37.5t52.5 102.5v353h-300z" />
    <glyph glyph-name="uni0259" unicode="&#x259;" horiz-adv-x="762" 
d="M717 285q0 -136 -95.5 -209.5t-258.5 -73.5q-157 0 -245 71t-88 207v49h544q-15 108 -213 108h-233l128 130h100q182 0 271.5 -62t89.5 -198v-22zM366 128q159 0 199 97h-371q22 -97 172 -97z" />
    <glyph glyph-name="circumflex" unicode="&#x2c6;" horiz-adv-x="722" 
d="M698 680l-216 133l-458 -282l-24 41l483 294l239 -144z" />
    <glyph glyph-name="caron" unicode="&#x2c7;" horiz-adv-x="722" 
d="M722 675l-239 -144l-483 294l24 41l458 -282l216 133z" />
    <glyph glyph-name="breve" unicode="&#x2d8;" horiz-adv-x="462" 
d="M341 650h-220q-65 0 -93 29.5t-28 86.5h52q0 -21 3 -33.5t19 -22.5t47 -10h220q44 0 56.5 16.5t12.5 49.5v143h52v-143q0 -57 -28 -86.5t-93 -29.5z" />
    <glyph glyph-name="dotaccent" unicode="&#x2d9;" horiz-adv-x="50" 
d="M0 599v206h50v-206h-50z" />
    <glyph glyph-name="ring" unicode="&#x2da;" horiz-adv-x="589" 
d="M539 899q0 -101 -72 -172.5t-173 -71.5q-100 0 -172 71.5t-72 172.5t71.5 173t172.5 72t173 -72t72 -173zM95 899q0 -83 58.5 -141t140.5 -58q83 0 141.5 58t58.5 141t-58.5 141.5t-141.5 58.5t-141 -58.5t-58 -141.5z" />
    <glyph glyph-name="ogonek" unicode="&#x2db;" horiz-adv-x="50" 
d="M50 -206h-50v206h50v-206z" />
    <glyph glyph-name="tilde" unicode="&#x2dc;" horiz-adv-x="749" 
d="M726 865l23 -43l-375 -201l-79 57l-272 -144l-23 43l298 158l79 -57z" />
    <glyph glyph-name="hungarumlaut" unicode="&#x2dd;" horiz-adv-x="1061" 
d="M1049 865l12 -45l-1049 -287l-12 45zM1049 767l12 -45l-527 -145l-12 45z" />
    <glyph glyph-name="Wgrave" unicode="&#x1e80;" horiz-adv-x="1234" 
d="M959 633l-1049 287l12 45l1049 -287zM773 0l-156 395l-156 -395h-279l-140 700h164l127 -636l195 486h178l195 -486l127 636h164l-140 -700h-279z" />
    <glyph glyph-name="wgrave" unicode="&#x1e81;" horiz-adv-x="988" 
d="M605 0l-111 293l-111 -293h-254l-107 550h158l87 -465l227 540l227 -540l85 456l-1019 279l12 45l1049 -287l-7 -28h125l-107 -550h-254z" />
    <glyph glyph-name="Wacute" unicode="&#x1e82;" horiz-adv-x="1234" 
d="M1312 965l12 -45l-1049 -287l-12 45zM773 0l-156 395l-156 -395h-279l-140 700h164l127 -636l195 486h178l195 -486l127 636h164l-140 -700h-279z" />
    <glyph glyph-name="wacute" unicode="&#x1e83;" horiz-adv-x="988" 
d="M605 0l-111 293l-111 -293h-254l-107 550h125l-7 28l1049 287l12 -45l-1019 -279l85 -456l227 540l227 -540l87 465h158l-107 -550h-254z" />
    <glyph glyph-name="Wdieresis" unicode="&#x1e84;" horiz-adv-x="1234" 
d="M489 749v206h52v-206h-52zM701 850h206v-50h-206v50zM773 0l-156 395l-156 -395h-279l-140 700h164l127 -636l195 486h178l195 -486l127 636h164l-140 -700h-279z" />
    <glyph glyph-name="wdieresis" unicode="&#x1e85;" horiz-adv-x="988" 
d="M366 599v206h52v-206h-52zM578 700h206v-50h-206v50zM605 0l-111 293l-111 -293h-254l-107 550h158l87 -465l227 540l227 -540l87 465h158l-107 -550h-254z" />
    <glyph glyph-name="uni1ECA" unicode="&#x1eca;" horiz-adv-x="822" 
d="M60 558v142h702v-142h-272v-416h272v-142h-702v142h272v416h-272zM386 -206v157h50v-157h-50z" />
    <glyph glyph-name="uni1ECB" unicode="&#x1ecb;" horiz-adv-x="309" 
d="M80 762h362v-123h-362v123zM80 550h149v-550h-149v550zM129 -206v157h50v-157h-50z" />
    <glyph glyph-name="uni1ECC" unicode="&#x1ecc;" horiz-adv-x="1116" 
d="M50 379q0 341 508 341t508 -341v-51q0 -341 -508 -341t-508 341v51zM913 379q0 202 -355 202t-355 -202v-51q0 -202 355 -202t355 202v51zM533 -206v157h50v-157h-50z" />
    <glyph glyph-name="uni1ECD" unicode="&#x1ecd;" horiz-adv-x="842" 
d="M797 260q0 -134 -99.5 -203.5t-276.5 -69.5t-276.5 69.5t-99.5 203.5v32q0 134 99.5 203.5t276.5 69.5t276.5 -69.5t99.5 -203.5v-32zM656 260v32q0 69 -63 104.5t-172 35.5t-172 -35.5t-63 -104.5v-32q0 -69 63 -104.5t172 -35.5t172 35.5t63 104.5zM396 -206v157h50
v-157h-50z" />
    <glyph glyph-name="uni1EE4" unicode="&#x1ee4;" horiz-adv-x="1070" 
d="M226 342q0 -56 20 -96.5t49 -63t73 -36t82 -17t86 -3.5q47 0 85 3.5t82 17t73 36t48.5 63t19.5 96.5v358h158v-356q0 -357 -467 -357t-467 357v356h158v-358zM510 -206v157h50v-157h-50z" />
    <glyph glyph-name="uni1EE5" unicode="&#x1ee5;" horiz-adv-x="804" 
d="M575 0v121q-43 -56 -111.5 -95t-144.5 -39q-119 0 -186.5 71.5t-67.5 193.5v298h149v-268q0 -89 33.5 -123t118.5 -34q106 0 209 65v360h149v-550h-149zM369 -206v157h50v-157h-50z" />
    <glyph glyph-name="Ygrave" unicode="&#x1ef2;" horiz-adv-x="1028" 
d="M594 295v-295h-158v295l-441 405h223l297 -276l264 247l-911 249l12 45l969 -265h184z" />
    <glyph glyph-name="ygrave" unicode="&#x1ef3;" horiz-adv-x="737" 
d="M737 550l-398 -756h-171l108 206h-104l-155 550h159l136 -483l248 472l-1026 281l12 45l1049 -287l-7 -28h149z" />
    <glyph glyph-name="uni2007" unicode="&#x2007;" horiz-adv-x="1112" 
 />
    <glyph glyph-name="uni2008" unicode="&#x2008;" horiz-adv-x="428" 
 />
    <glyph glyph-name="uni2009" unicode="&#x2009;" horiz-adv-x="70" 
 />
    <glyph glyph-name="uni200B" unicode="&#x200b;" horiz-adv-x="0" 
 />
    <glyph glyph-name="endash" unicode="&#x2013;" horiz-adv-x="819" 
d="M749 228h-679v143h679v-143z" />
    <glyph glyph-name="emdash" unicode="&#x2014;" horiz-adv-x="1291" 
d="M1221 228h-1151v143h1151v-143z" />
    <glyph glyph-name="quoteleft" unicode="&#x2018;" horiz-adv-x="340" 
d="M335 700l-173 -434h-157l173 434h157z" />
    <glyph glyph-name="quoteright" unicode="&#x2019;" horiz-adv-x="340" 
d="M335 700l-173 -434h-157l173 434h157z" />
    <glyph glyph-name="quotesinglbase" unicode="&#x201a;" horiz-adv-x="340" 
d="M335 228l-173 -434h-157l173 434h157z" />
    <glyph glyph-name="quotedblleft" unicode="&#x201c;" horiz-adv-x="613" 
d="M608 700l-173 -434h-157l173 434h157zM335 700l-173 -434h-157l173 434h157z" />
    <glyph glyph-name="quotedblright" unicode="&#x201d;" horiz-adv-x="613" 
d="M608 700l-173 -434h-157l173 434h157zM335 700l-173 -434h-157l173 434h157z" />
    <glyph glyph-name="quotedblbase" unicode="&#x201e;" horiz-adv-x="613" 
d="M335 228l-173 -434h-157l173 434h157zM608 228l-173 -434h-157l173 434h157z" />
    <glyph glyph-name="bullet" unicode="&#x2022;" horiz-adv-x="616" 
d="M140 300q0 70 49 119t119 49t119 -49t49 -119t-49 -119t-119 -49t-119 49t-49 119z" />
    <glyph glyph-name="ellipsis" unicode="&#x2026;" horiz-adv-x="732" 
d="M50 288h144v-288h-144v288zM294 288h144v-288h-144v288zM538 288h144v-288h-144v288z" />
    <glyph glyph-name="guilsinglleft" unicode="&#x2039;" horiz-adv-x="358" 
d="M293 154v-167l-223 167v244l223 167v-167l-163 -122z" />
    <glyph glyph-name="guilsinglright" unicode="&#x203a;" horiz-adv-x="358" 
d="M288 154l-223 -167v167l163 122l-163 122v167l223 -167v-244z" />
    <glyph glyph-name="Euro" unicode="&#x20ac;" horiz-adv-x="1026" 
d="M920 19q-108 -32 -266 -32q-470 0 -505 292h-119l16 45h100v4v48h-82l16 45h68q30 299 506 299q194 0 314 -49l-48 -139q-88 49 -266 49q-317 0 -351 -160h579l-16 -45h-567v-48v-4h549l-16 -45h-527q39 -153 349 -153q178 0 266 49v-156z" />
    <glyph glyph-name="minus" unicode="&#x2212;" horiz-adv-x="595" 
d="M495 277h-395v45h395v-45z" />
    <glyph glyph-name="dot" unicode="&#x27d1;" horiz-adv-x="242" 
d="M-60 762h362v-123h-362v123z" />
    <glyph glyph-name="commaaccent" unicode="&#xf6c3;" horiz-adv-x="336" 
d="M0 -206l249 155h87l-249 -155h-87z" />
    <glyph glyph-name="uniFB00" unicode="&#xfb00;" horiz-adv-x="1120" 
d="M535 420v130h94q0 34 9 63l-193 25q-157 0 -157 -88h182v-130h-182v-420h-149v420h-109v130h109q0 96 68 154t190 58h168l96 -98q64 98 226 98h168l155 -159l-275 35q-157 0 -157 -88h284v-130h-284v-420h-149v420h-94z" />
    <glyph glyph-name="fi" unicode="&#xfb01;" horiz-adv-x="858" 
d="M30 420v130h109q0 96 68 154t190 58h168l155 -159l-275 35q-157 0 -157 -88h241v-130h-241v-420h-149v420h-109zM715 762h276v-123h-276v123zM629 550h149v-550h-149v550z" />
    <glyph glyph-name="fl" unicode="&#xfb02;" horiz-adv-x="858" 
d="M30 420v130h109q0 96 68 154t190 58h168l213 -219v-543h-149v615l-184 23q-157 0 -157 -88h241v-130h-241v-420h-149v420h-109z" />
    <glyph glyph-name="uniFB03" unicode="&#xfb03;" horiz-adv-x="1348" 
d="M535 420v130h94q0 34 9 63l-193 25q-157 0 -157 -88h182v-130h-182v-420h-149v420h-109v130h109q0 96 68 154t190 58h168l96 -98q64 98 226 98h168l155 -159l-275 35q-157 0 -157 -88h241v-130h-241v-420h-149v420h-94zM1205 762h276v-123h-276v123zM1119 550h149v-550
h-149v550z" />
    <glyph glyph-name="uniFB04" unicode="&#xfb04;" horiz-adv-x="1348" 
d="M535 420v130h94q0 34 9 63l-193 25q-157 0 -157 -88h182v-130h-182v-420h-149v420h-109v130h109q0 96 68 154t190 58h168l96 -98q64 98 226 98h168l213 -219v-543h-149v615l-184 23q-157 0 -157 -88h241v-130h-241v-420h-149v420h-94z" />
    <glyph glyph-name="uniFEFF" unicode="&#xfeff;" horiz-adv-x="0" 
 />
    <glyph glyph-name="CR" horiz-adv-x="350" 
 />
    <glyph glyph-name="L_periodcentered" horiz-adv-x="841" 
d="M796 142v-142h-721v700h158v-558h563zM542 332v206h50v-206h-50z" />
    <glyph glyph-name="l_periodcentered" horiz-adv-x="359" 
d="M80 762h149v-762h-149v762zM309 332v206h50v-206h-50z" />
    <glyph glyph-name="apple" horiz-adv-x="1107" 
d="M589 251v-82l251 23q36 3 36 30l-30 29h-6h-251zM311 636h-162v-61h162q17 0 26 9t9 22q0 30 -35 30zM840 636h-251v-82l251 23q36 3 36 30q0 29 -36 29zM349 515h-200v-66h200q15 0 26 9t11 24t-10.5 24t-26.5 9zM519 315h260l-187 179h-3v-109h-70v74l-69 -154
q55 -22 55 -83q0 -44 -28 -65t-83 -26l-83 -7l208 -96v287zM399 251h-250v-82l250 23q36 3 36 30q0 29 -36 29zM667 979l-108 -279h140l221 227l-89 -153l65 5l-58 -79q50 -1 79.5 -25.5t29.5 -67.5q0 -44 -28.5 -65t-83.5 -26l-15 -1l372 -595l-261 249q-25 -32 -96 -38
l-17 -2l94 -309l-257 295l-66 -6v-109h-151l-246 113l-43 -4v-109h-71v315h257l22 70h-6h-273v315h230q45 0 74.5 -25t29.5 -61q0 -8 -4 -24l2 2l52 162l-138 -41l325 623l-129 -400z" />
    <glyph glyph-name="dotaccent.low" horiz-adv-x="50" 
d="M0 -206v157h50v-157h-50z" />
    <glyph glyph-name="caron.slovak" horiz-adv-x="50" 
d="M0 556v206h50v-206h-50z" />
    <glyph glyph-name="commaaccent.top" horiz-adv-x="528" 
d="M0 601l441 274h87l-441 -274h-87z" />
    <glyph glyph-name="dieresis.i" horiz-adv-x="418" 
d="M0 599v206h52v-206h-52zM212 700h206v-50h-206v50z" />
    <glyph glyph-name="acute.case" horiz-adv-x="1061" 
d="M1049 965l12 -45l-1049 -287l-12 45z" />
    <glyph glyph-name="breve.case" horiz-adv-x="462" 
d="M341 750h-220q-65 0 -93 29.5t-28 86.5h52q0 -21 3 -33.5t19 -22.5t47 -10h220q44 0 56.5 16.5t12.5 49.5v143h52v-143q0 -57 -28 -86.5t-93 -29.5z" />
    <glyph glyph-name="caron.case" horiz-adv-x="722" 
d="M722 825l-239 -144l-483 294l24 41l458 -282l216 133z" />
    <glyph glyph-name="cedilla.case" horiz-adv-x="180" 
d="M0 -194l146 146l34 -34l-146 -145z" />
    <glyph glyph-name="circumflex.case" horiz-adv-x="722" 
d="M698 780l-216 133l-458 -282l-24 41l483 294l239 -144z" />
    <glyph glyph-name="dieresis.case" horiz-adv-x="418" 
d="M0 749v206h52v-206h-52zM212 850h206v-50h-206v50z" />
    <glyph glyph-name="dotaccent.case" horiz-adv-x="50" 
d="M0 749v206h50v-206h-50z" />
    <glyph glyph-name="grave.case" horiz-adv-x="1061" 
d="M1049 633l-1049 287l12 45l1049 -287z" />
    <glyph glyph-name="hungarumlaut.case" horiz-adv-x="1061" 
d="M1049 965l12 -45l-1049 -287l-12 45zM1049 867l12 -45l-248 -68l-12 45z" />
    <glyph glyph-name="macron.case" horiz-adv-x="766" 
d="M0 800h766v-50h-766v50z" />
    <glyph glyph-name="ogonek.case" horiz-adv-x="50" 
d="M50 -206h-50v206h50v-206z" />
    <glyph glyph-name="ring.case" horiz-adv-x="589" 
d="M539 669q0 -101 -72 -172.5t-173 -71.5q-100 0 -172 71.5t-72 172.5t71.5 173t172.5 72t173 -72t72 -173zM95 669q0 -83 58.5 -141t140.5 -58q83 0 141.5 58t58.5 141t-58.5 141.5t-141.5 58.5t-141 -58.5t-58 -141.5z" />
    <glyph glyph-name="tilde.case" horiz-adv-x="749" 
d="M726 965l23 -43l-375 -201l-79 57l-272 -144l-23 43l298 158l79 -57z" />
    <glyph glyph-name="A.ss01" 
d="M931 93v-157l-871 281v267l871 281v-157l-247 -78v-359zM120 351l416 -133v265z" />
    <glyph glyph-name="B.ss01" 
d="M681 810q104 0 177 -62t73 -173v-575h-871v472q0 108 75 178t174 70q106 0 152 -74q18 74 81.5 119t138.5 45zM565 557v-415h208v415q0 47 -30 79t-74 32t-74 -32t-30 -79zM218 474v-332h198v332q0 41 -28 72.5t-71 31.5t-71 -31.5t-28 -72.5z" />
    <glyph glyph-name="C.ss01" horiz-adv-x="852" 
d="M506 643v150q134 -25 210 -126.5t76 -247.5v-138q0 -167 -98.5 -274t-267.5 -107t-267.5 107t-98.5 274v138q0 146 76.5 248t210.5 126v-150q-60 -24 -94.5 -82t-34.5 -132v-158q0 -98 57 -163.5t151 -65.5t151 65.5t57 163.5v158q0 74 -34 132t-94 82z" />
    <glyph glyph-name="D.ss01" horiz-adv-x="852" 
d="M426 800q169 0 267.5 -107t98.5 -274v-419h-732v419q0 167 98.5 274t267.5 107zM218 429v-287h416v287q0 98 -57 163.5t-151 65.5t-151 -65.5t-57 -163.5z" />
    <glyph glyph-name="E.ss01" 
d="M773 700h158v-700h-871v700h158v-558h200v394h155v-394h200v558z" />
    <glyph glyph-name="F.ss01" 
d="M931 142v-142h-871v700h158v-558h200v394h155v-394h358z" />
    <glyph glyph-name="G.ss01" horiz-adv-x="852" 
d="M498 190h-145v604q35 6 73 6q169 0 267.5 -107t98.5 -274v-138q0 -167 -98.5 -274t-267.5 -107t-267.5 107t-98.5 274v138q0 125 57 219t160 135v-178q-59 -65 -59 -166v-158q0 -98 57 -163.5t151 -65.5t151 65.5t57 163.5v158q0 77 -36 136t-100 81v-456z" />
    <glyph glyph-name="H.ss01" 
d="M931 142v-142h-871v142h356v416h-356v142h871v-142h-357v-416h357z" />
    <glyph glyph-name="I.ss01" 
d="M774 0v278h-555v-278h-158v700h158v-277h555v277h158v-700h-158z" />
    <glyph glyph-name="J.ss01" 
d="M575 0v142q97 0 156.5 56t59.5 152t-59.5 152t-156.5 56h-515v142h505q171 0 276 -88.5t105 -261.5q0 -171 -102 -259.5t-269 -90.5z" />
    <glyph glyph-name="K.ss01" 
d="M931 142v-142h-871v142h389l-389 457v217l337 -396l534 300v-165l-439 -246l142 -167h297z" />
    <glyph glyph-name="L.ss01" 
d="M773 700h158v-700h-871v142h713v558z" />
    <glyph glyph-name="M.ss01" 
d="M60 177l640 173l-640 173v177h871v-142h-544l370 -97v-222l-370 -97h544v-142h-871v177z" />
    <glyph glyph-name="N.ss01" 
d="M60 700h871v-146l-621 -412h621v-142h-871v146l622 412h-622v142z" />
    <glyph glyph-name="O.ss01" horiz-adv-x="852" 
d="M426 800q169 0 267.5 -107t98.5 -274v-138q0 -167 -98.5 -274t-267.5 -107t-267.5 107t-98.5 274v138q0 167 98.5 274t267.5 107zM426 658q-94 0 -151 -65.5t-57 -163.5v-158q0 -98 57 -163.5t151 -65.5t151 65.5t57 163.5v158q0 98 -57 163.5t-151 65.5z" />
    <glyph glyph-name="P.ss01" 
d="M931 142v-142h-871v432q0 122 84.5 205t210.5 83t210.5 -83t84.5 -205v-290h281zM218 425v-283h274v283q0 67 -37 110t-100 43t-100 -43t-37 -110z" />
    <glyph glyph-name="Q.ss01" horiz-adv-x="852" 
d="M792 281q0 -167 -98.5 -274t-267.5 -107t-267.5 107t-98.5 274v138q0 167 98.5 274t267.5 107q122 0 210 -58l156 144v-192l-58 -54q58 -93 58 -221v-138zM218 429v-74l304 281q-44 22 -96 22q-94 0 -151 -65.5t-57 -163.5zM634 429q0 53 -19 101l-381 -353
q22 -62 72.5 -98.5t119.5 -36.5q94 0 151 65.5t57 163.5v158z" />
    <glyph glyph-name="R.ss01" 
d="M931 142v-142h-871v463q0 116 79 186.5t183 70.5q103 0 166.5 -65t81.5 -182l5 -36l356 449v-234l-327 -413l15 -97h312zM218 455v-313h252l-47 319q-17 117 -101 117q-48 0 -76 -34t-28 -89z" />
    <glyph glyph-name="S.ss01" 
d="M708 700q103 0 170.5 -88t67.5 -249q0 -181 -104 -286t-267 -107v142q95 0 155.5 70t60.5 181q0 91 -29 143t-65 52h-14q-25 0 -44.5 -29t-40.5 -87l-61 -170q-46 -128 -129.5 -200t-167.5 -72h-27q-83 0 -118 54t-35 162v129l158 156v-359q44 0 98 60t87 152l46 128
q39 108 89 163t127 55h43z" />
    <glyph glyph-name="T.ss01" 
d="M931 278h-713v-278h-158v700h158v-277h713v-145z" />
    <glyph glyph-name="U.ss01" 
d="M575 142q97 0 156.5 56t59.5 152t-59.5 152t-156.5 56h-515v142h505q171 0 276 -88.5t105 -261.5t-105 -261.5t-276 -88.5h-505v142h515z" />
    <glyph glyph-name="V.ss01" 
d="M931 220l-871 -264v153l813 242l-813 241v153l871 -264v-261z" />
    <glyph glyph-name="W.ss01" 
d="M931 52l-871 -92v145l814 83l-463 69v186l463 69l-814 83v145l871 -92v-257l-341 -41l341 -41v-257z" />
    <glyph glyph-name="X.ss01" 
d="M931 -13l-392 223l-479 -344v175l438 313l-438 312v175l479 -344l392 223v-168l-352 -198l352 -199v-168z" />
    <glyph glyph-name="Y.ss01" 
d="M931 277h-378l-493 -338v174l349 237l-349 236v174l493 -338h378v-145z" />
    <glyph glyph-name="Z.ss01" horiz-adv-x="820" 
d="M612 0l-394 462v-552h-158v790h148l394 -462v538h158v-776h-148z" />
    <glyph glyph-name="A.ss02" horiz-adv-x="1091" 
d="M635 -205q-22 -23 -55 -21t-60 28q-62 59 -62 186q0 48 13.5 87.5t29 60.5t29 46t13.5 48q0 31 -19.5 78.5t-19.5 109.5v145l-323 -563h-171l402 700h267l402 -700h-171l-324 565v-201q0 -30 9.5 -64t9.5 -70q0 -42 -29 -89.5t-29 -81.5q0 -33 20 -55.5t46 -44.5t35 -45
q29 -76 -13 -119z" />
    <glyph glyph-name="C.ss02" horiz-adv-x="1114" 
d="M203 379v-51q0 -202 355 -202q311 0 349 154h156q-33 -293 -505 -293q-508 0 -508 341v51q0 137 70.5 218t174.5 81q47 0 81 -13t50.5 -32t28.5 -41.5t18 -41.5t17.5 -32t27.5 -13q17 0 31.5 18t25.5 45.5t26.5 59t33 59t47 45.5t65.5 18q58 0 117.5 -31t100.5 -74.5
t66.5 -87t25.5 -70.5q0 -33 -22 -54.5t-54 -21.5q-70 0 -94 73q-25 73 -65 125t-88 52q-32 0 -55.5 -22.5t-38 -54.5l-29 -64t-38 -54.5t-55.5 -22.5q-36 0 -60 23.5t-35 51t-31 51t-48 23.5q-51 0 -96 -58.5t-45 -154.5z" />
    <glyph glyph-name="E.ss02" horiz-adv-x="921" 
d="M75 0v700h791v-142h-633v-184q14 -2 23 -2q23 0 54 13.5t57.5 29t67.5 29t83 13.5q107 0 166 -62q26 -27 28 -60t-21 -55q-43 -42 -119 -13q-23 9 -45 35t-44.5 46t-55.5 20q-30 0 -79 -26t-92 -26q-16 0 -23 1v-175h633v-142h-791z" />
    <glyph glyph-name="F.ss02" horiz-adv-x="894" 
d="M75 0v700h791v-142h-633v-160q7 1 23 1q34 0 62 -18.5t54 -37t55 -18.5q26 0 46.5 16t32 36t29.5 41t37 28q76 29 119 -13q23 -22 21 -55t-28 -60q-78 -82 -186 -82q-48 0 -87.5 16.5t-60.5 36t-46 36t-48 16.5q-9 0 -23 -2v-339h-158z" />
    <glyph glyph-name="G.ss02" horiz-adv-x="1116" 
d="M203 379v-51q0 -202 355 -202q317 0 351 160h-531v139h688v-97q0 -341 -508 -341t-508 341v51q0 139 71.5 217t188.5 78q62 0 109.5 -19.5t78.5 -19.5q23 0 48 13.5t46 29t60.5 29t87.5 13.5q127 0 186 -62q26 -27 28 -60t-21 -55q-43 -42 -119 -13q-23 9 -45 35
t-44.5 46t-55.5 20q-34 0 -81.5 -29t-89.5 -29q-36 0 -70 9.5t-64 9.5q-62 0 -111.5 -58t-49.5 -155z" />
    <glyph glyph-name="L.ss02" horiz-adv-x="841" 
d="M233 244q9 17 37 35t61 18q46 0 75.5 -33t42.5 -80t23 -94.5t27 -80.5t46 -33q32 0 49.5 43t26.5 109t14 80q12 36 37 57t58 21q32 0 54 -22t22 -57q0 -38 -37 -108t-100 -131t-122 -61q-56 0 -91.5 40.5t-47.5 88.5t-27.5 88.5t-35.5 40.5q-15 0 -29 -13.5t-25.5 -30.5
t-36 -30.5t-58.5 -13.5q-57 0 -89 39.5t-32 106.5v477h158v-456z" />
    <glyph glyph-name="S.ss02" horiz-adv-x="969" 
d="M337 324q-272 40 -272 206q0 66 46.5 109.5t108.5 43.5q40 0 66 -17t36.5 -37.5t25.5 -37.5t34 -17q26 0 42 23t24 50t36 50t75 23q82 0 128 -55.5t46 -117.5q0 -33 -22 -54.5t-54 -21.5q-70 0 -94 73q-23 68 -30 77q-8 10 -22 10q-18 0 -31.5 -18.5t-22 -41t-28 -41
t-47.5 -18.5q-21 0 -40 13.5t-30.5 29t-27 29t-32.5 13.5t-28 -10t-11 -29q0 -39 50 -63.5t156 -40.5l302 -46q218 -33 218 -177v-43q0 -98 -107.5 -149.5t-311.5 -51.5q-138 0 -242.5 29.5t-170.5 97t-69 166.5h154q28 -151 327 -151q266 1 266 70v14q0 26 -24 38t-80 21z
" />
    <glyph glyph-name="T.ss02" horiz-adv-x="992" 
d="M659 631q-8 0 -15.5 -1t-14.5 -3t-12 -3.5t-12 -6t-9.5 -6t-10.5 -7t-10 -6.5v-598h-158v598q-2 1 -10 6.5t-10.5 7t-9.5 6t-12 6t-12 3.5t-14.5 3t-15.5 1q-32 0 -58.5 -11.5t-45 -27.5t-35.5 -32t-38.5 -27.5t-45.5 -11.5q-42 0 -65 24.5t-20.5 57t27.5 57.5
q60 60 202 60q48 0 87.5 -13.5t60.5 -29t46 -29t48 -13.5t48 13.5t46 29t60.5 29t87.5 13.5q142 0 202 -60q25 -25 27.5 -57.5t-20.5 -57t-65 -24.5q-24 0 -45.5 11.5t-38.5 27.5t-35.5 32t-45 27.5t-58.5 11.5z" />
    <glyph glyph-name="Z.ss02" 
d="M971 207q0 -36 -39.5 -90t-102 -97t-117.5 -43q-41 0 -77 19.5t-61 47t-47.5 55t-46 47t-45.5 19.5q-25 0 -62 -23t-69 -50t-75 -50t-79 -23q-27 0 -45.5 17.5t-18.5 42.5q0 24 14 43t44 42l516 394h-635v142h860v-142l-369 -282q34 -17 62.5 -57t44.5 -77.5t38.5 -66.5
t48.5 -29q21 0 37 19t23 39t16.5 56.5t13.5 47.5q12 36 37 57t58 21q32 0 54 -22t22 -57z" />
    <glyph glyph-name="Maj-vert" horiz-adv-x="296" 
d="M70 0v700h158v-700h-158z" />
    <glyph glyph-name="min-curv-b" horiz-adv-x="808" 
d="M773 292v-32q0 -123 -79.5 -198t-205.5 -75q-109 0 -194 50.5t-123 117.5l2 50q36 -30 111 -55t145 -25q91 0 147 34t56 101v32q0 67 -56 101t-147 34q-70 0 -145 -25t-111 -55l-2 50q38 67 123 117.5t194 50.5q126 0 205.5 -75t79.5 -198z" />
    <glyph glyph-name="min-curv-n" horiz-adv-x="767" 
d="M580 0v270q0 89 -33.5 123t-118.5 34q-62 0 -135 -22.5t-106 -54.5l-2 59q38 67 115.5 111.5t170.5 44.5q122 0 190 -71t68 -194v-300h-149z" />
    <glyph glyph-name="min-desc" horiz-adv-x="242" 
d="M48 550h149v-756h-149v756z" />
    <glyph glyph-name="period-punct" horiz-adv-x="579" 
d="M70 0v144h439v-144h-439z" />
    </font>
</defs>
</svg>
